<?xml version="1.0" encoding="utf-8"?>
<!-- Generator: Adobe Illustrator 27.5.0, SVG Export Plug-In . SVG Version: 6.00 Build 0)  -->
<svg version="1.1" id="Слой_1" xmlns="http://www.w3.org/2000/svg" xmlns:xlink="http://www.w3.org/1999/xlink" x="0px" y="0px"
	 viewBox="0 0 4000 2000" style="enable-background:new 0 0 4000 2000;" xml:space="preserve">
<rect x="-0.001" style="fill:#FFFFFF;" width="4000" height="2000"/>
<g>
	<path style="fill:#E3EAFF;" d="M192.273,1162.973c56.27-248.078,352.279-317.918,425.888-390.231
		c114.711-112.693-20.46-306.074,58.39-446.221c78.953-140.329,299.885-243.15,457.347-209.506
		c249.429,53.293,337.708,213.759,617.658,244.088c135.954,14.73,205.186-47.743,380.691-78.5
		c136.709-23.958,249.327,66.092,339.793,52.888c175.184-44.428,190.533-205.276,415.828-216.427
		c191.521-16.894,260.776,71.943,353.262,220.555c157.275,252.719,436.35-13.097,581.203,318.685
		c91.697,210.03-146.144,444.174-94.749,545.758c28.966,57.249,110.904,155.074,138.774,212.865
		c73.376,152.15-15.69,291.896-109.914,443.691L438.413,1846.76c-3.431-0.014-8.627-1.5-11.547-3.301
		C426.866,1843.459,85.671,1632.949,192.273,1162.973z"/>
	<g>
		<path style="fill:#A9B9EB;" d="M2698.525,1742.469c49.698,17.878,103.203,6.186,160.513-35.078
			C2789.686,1693.898,2736.182,1705.592,2698.525,1742.469z"/>
		<path style="fill:#A9B9EB;" d="M2774.639,1676.914c45.618,15.401,94.156,6.945,145.615-31.685
			C2856.795,1634.141,2808.257,1642.596,2774.639,1676.914z"/>
		<path style="fill:#A9B9EB;" d="M2846.721,1614.4c45.638,3.056,87.394-19.406,125.268-67.387
			C2910.994,1552.148,2869.238,1574.61,2846.721,1614.4z"/>
		<path style="fill:#A9B9EB;" d="M3003.191,1457.842c-49.19,16.084-79.236,42.695-90.138,79.836
			C2951.324,1531.264,2981.371,1504.651,3003.191,1457.842z"/>
		<path style="fill:#A9B9EB;" d="M3000.895,1387.611c-38.135,20.553-58.938,46.901-62.408,79.047
			C2968.994,1455.773,2989.797,1429.424,3000.895,1387.611z"/>
		<path style="fill:#A9B9EB;" d="M2925.793,1435.226c24.596-21.063,34.598-53.121,30.007-96.176
			C2927.544,1371.92,2917.541,1403.979,2925.793,1435.226z"/>
		<path style="fill:#A9B9EB;" d="M2724.416,1580.195c-38.492,59.974-47.362,114.512-26.607,163.613
			C2732.935,1703.886,2741.804,1649.348,2724.416,1580.195z"/>
		<path style="fill:#A9B9EB;" d="M2815.682,1628.631c15.934-40.551,7.529-84.986-25.215-133.309
			C2777.699,1552.184,2786.105,1596.621,2815.682,1628.631z"/>
		<path style="fill:#A9B9EB;" d="M2840.081,1445.988c-11.157,49.483-3.847,88.145,21.932,115.988
			C2875.906,1526.707,2868.596,1488.043,2840.081,1445.988z"/>
		<path style="fill:#A9B9EB;" d="M2894.813,1495.266c13.807-35.271,6.497-73.935-21.932-115.988
			C2861.732,1428.785,2869.043,1467.447,2894.813,1495.266z"/>
		<path style="fill:#A9B9EB;" d="M2609.068,1805.809c107.451-66.47,96.988-66.405,155.264-117.196
			c15.758-13.707,30.396-27.596,43.921-41.663c27.343-29.173,51.442-61.226,71.874-95.597c24.766-39.795,39.052-71.895,42.86-96.295
			l1.632-2.746c0.75-0.594,0.967-1.64,0.512-2.481c0.098-0.935-0.195-1.87-0.811-2.582c-0.842-0.51-1.791-0.815-2.772-0.894
			c-0.936-0.098-1.87,0.195-2.582,0.811l-1.516,1.335c-0.493,0.857-0.811,1.804-0.932,2.786l-0.431,0.135l-0.143,2.15
			c-4.237,23.761-18.279,54.951-42.124,93.572c-20.446,33.873-44.538,65.407-71.847,94.039
			c-13.575,14.523-27.891,28.335-42.891,41.383l-3.925,3.38c26.019-40.275,26.673-90.088,1.96-149.437
			c-26.321,58.592-26.975,108.404-1.96,149.437c-57.545,49.56-45.378,48.03-150.153,112.801L2609.068,1805.809z"/>
	</g>
	<g>
		<path style="fill:#A9B9EB;" d="M1480.129,1788.039c45.457,16.352,94.395,5.657,146.814-32.084
			C1563.51,1743.614,1514.572,1754.309,1480.129,1788.039z"/>
		<path style="fill:#A9B9EB;" d="M1549.538,1725.59c43.218,8.461,85.825-7.927,127.819-49.16
			C1618.484,1674.032,1575.877,1690.419,1549.538,1725.59z"/>
		<path style="fill:#A9B9EB;" d="M1616.946,1659.642c41.793,1.91,79.542-19.439,113.246-64.049
			C1674.515,1601.471,1636.766,1622.82,1616.946,1659.642z"/>
		<path style="fill:#A9B9EB;" d="M1754.796,1515.239c-44.992,14.711-72.474,39.052-82.445,73.021
			C1707.354,1582.395,1734.837,1558.055,1754.796,1515.239z"/>
		<path style="fill:#A9B9EB;" d="M1752.695,1451.002c-34.88,18.799-53.907,42.899-57.083,72.301
			C1723.517,1513.348,1742.544,1489.246,1752.695,1451.002z"/>
		<path style="fill:#A9B9EB;" d="M1684.003,1494.555c22.496-19.267,31.645-48.588,27.446-87.969
			C1685.604,1436.65,1676.456,1465.973,1684.003,1494.555z"/>
		<path style="fill:#A9B9EB;" d="M1491.099,1628.664c-35.208,54.855-43.32,104.738-24.337,149.649
			C1498.89,1741.797,1507.002,1691.914,1491.099,1628.664z"/>
		<path style="fill:#A9B9EB;" d="M1585.429,1663.551c14.574-37.09,6.887-77.733-23.063-121.932
			C1550.688,1593.629,1558.375,1634.273,1585.429,1663.551z"/>
		<path style="fill:#A9B9EB;" d="M1605.606,1504.396c-10.205,45.26-3.518,80.623,20.06,106.09
			C1638.375,1578.226,1631.688,1542.863,1605.606,1504.396z"/>
		<path style="fill:#A9B9EB;" d="M1655.666,1549.469c12.63-32.262,5.943-67.625-20.059-106.089
			C1625.409,1488.662,1632.096,1524.025,1655.666,1549.469z"/>
		<path style="fill:#A9B9EB;" d="M1394.31,1833.51c98.281-60.797,88.71-60.738,142.013-107.195
			c14.412-12.537,27.802-25.24,40.171-38.107c25.01-26.684,47.052-56,65.74-87.436c22.652-36.4,35.719-65.76,39.203-88.078
			l1.492-2.512c0.687-0.543,0.884-1.5,0.468-2.27c0.09-0.855-0.178-1.711-0.741-2.361c-0.77-0.467-1.638-0.746-2.536-0.816
			c-0.856-0.09-1.711,0.178-2.362,0.74l-1.386,1.221c-0.452,0.783-0.742,1.649-0.853,2.547l-0.393,0.124l-0.13,1.967
			c-3.876,21.733-16.719,50.263-38.53,85.587c-18.701,30.982-40.737,59.826-65.714,86.014c-12.417,13.283-25.512,25.917-39.23,37.85
			l-3.591,3.092c23.799-36.839,24.396-82.399,1.792-136.682c-24.074,53.591-24.672,99.151-1.792,136.682
			c-52.633,45.329-41.505,43.931-137.338,103.173L1394.31,1833.51z"/>
	</g>
	<g>
		<path style="fill:#A9B9EB;" d="M301.899,1290.555c0,0-23.354,41.035,11.986,115.025c36.027,75.389,28.548,127.6,28.548,127.6
			l33.414,29.102c0,0,7.405-79.443-24.426-138.647C311.486,1349.576,301.899,1290.555,301.899,1290.555z"/>
		<path style="fill:#A9B9EB;" d="M201.708,1312.445c0,0-6.55,34.181,33.828,82.355c41.255,49.047,47.758,88.723,47.758,88.723
			l27.849,22.791c0,0-11.44-66.84-46.238-104.771C221.436,1354.076,201.708,1312.445,201.708,1312.445z"/>
		<path style="fill:#A9B9EB;" d="M374.271,1369.871c0,0,30.448,21.645,49.055,108.162c15.174,70.504-1.28,107.148,8.283,150.355
			l-42.924-47.309c-2.32-30.605,17.543-50.559,6.881-115.156C385.602,1405.442,374.271,1369.871,374.271,1369.871z"/>
		<path style="fill:#A9B9EB;" d="M646.693,1633.479c0,0,13.22,35.054-19.573,117.162c-26.718,66.998-61.907,75.586-68.831,91.031
			l-14.76-34.113c18.986-26.219,40.125-22.832,67.296-82.4C636.261,1669.256,646.693,1633.479,646.693,1633.479z"/>
		<path style="fill:#A9B9EB;" d="M445.25,1424.485c0,0,20.476,61.155,24.91,100.063c6.407,55.3-15.702,84.656-13.217,141.613
			l43.704,61.506c0,0,13.903-83.662,3.268-151.58C486.077,1462.111,445.25,1424.485,445.25,1424.485z"/>
		<path style="fill:#A9B9EB;" d="M550.578,1454.029c-6.413,35.609-7.581,71.967-3.469,107.916
			c13.24,108.842-44.911,190.697-44.911,190.697l22.527,21.93c0,0,70.782-56.764,57.095-147.861
			C567.248,1530.455,550.578,1454.029,550.578,1454.029z"/>
		<path style="fill:#A9B9EB;" d="M390.953,1588.813c0,0-25.599-9.286-132.339,3.555c-68.401,8.253-48.232-17.503-112.876,1.578
			c49.054,4.669,65.53,40.626,129.596,36.647c51.237-3.217,102.647-2.414,153.759,2.4L390.953,1588.813z"/>
		<path style="fill:#A9B9EB;" d="M183.628,1656.721c0,0,41.519,53.01,136.175,46.902c58.261-3.611,116.72,2.381,173.037,17.738
			l-28.213-47.863c0,0-38.997-28.725-136.81-12.924C260.615,1671.415,183.628,1656.721,183.628,1656.721z"/>
		<path style="fill:#A9B9EB;" d="M239.41,1747.025c0,0,41.519,53.01,136.175,46.902c58.261-3.611,116.72,2.381,173.037,17.739
			l-28.213-47.862c0,0-38.997-28.726-136.809-12.924C316.396,1761.721,239.41,1747.025,239.41,1747.025z"/>
		<path style="fill:#A9B9EB;" d="M117.988,1483.059c0,0,30.001,27.557,89.674,21.449c60.512-6.224,104.879,7.104,104.879,7.104
			l-16.892-17.924c0,0-24.647-18.157-86.476-8.191C166.655,1492.333,117.988,1483.059,117.988,1483.059z"/>
		<path style="fill:#A9B9EB;" d="M337.997,1540.95c0,0-46.542-5.042-115.033,0.507c-43.222,3.367-100.479-23.033-100.479-23.033
			s43.863,62.184,108.511,53.1c74.131-10.438,147.221,0.06,147.221,0.06L337.997,1540.95z"/>
		<path style="fill:#A9B9EB;" d="M300.122,1500.867c0,0-38.25-60.949-103.119-73.438c-38.381-7.725-75.202-21.807-108.944-41.666
			c0,0,35.489,62.883,96.262,67.926c56.089,4.807,94.777,42.111,94.777,42.111L300.122,1500.867z"/>
		<path style="fill:#A9B9EB;" d="M553.036,1842.736l9.781-4.003c-24.701-60.325-136.551-256.536-278.315-354.97l-6.029,8.688
			C418.265,1589.532,528.627,1783.188,553.036,1842.736z"/>
	</g>
	<g>
		<path style="fill:#A9B9EB;" d="M2278.396,1358.474c0,0-17.959,31.556,9.217,88.454c27.705,57.973,21.953,98.122,21.953,98.122
			l25.695,22.38c0,0,5.693-61.092-18.783-106.62C2285.768,1403.861,2278.396,1358.474,2278.396,1358.474z"/>
		<path style="fill:#A9B9EB;" d="M2201.351,1375.307c0,0-5.037,26.285,26.013,63.332c31.725,37.717,36.726,68.227,36.726,68.227
			l21.416,17.525c0,0-8.798-51.399-35.558-80.567C2216.521,1407.322,2201.351,1375.307,2201.351,1375.307z"/>
		<path style="fill:#A9B9EB;" d="M2334.049,1419.467c0,0,23.414,16.645,37.724,83.176c11.669,54.217-0.984,82.396,6.369,115.621
			l-33.009-36.379c-1.783-23.535,13.49-38.879,5.292-88.555C2342.763,1446.82,2334.049,1419.467,2334.049,1419.467z"/>
		<path style="fill:#A9B9EB;" d="M2543.539,1622.18c0,0,10.166,26.955-15.051,90.096c-20.545,51.521-47.605,58.127-52.93,70.003
			l-11.351-26.232c14.601-20.163,30.856-17.558,51.751-63.366C2535.518,1649.691,2543.539,1622.18,2543.539,1622.18z"/>
		<path style="fill:#A9B9EB;" d="M2388.631,1461.465c0,0,15.746,47.027,19.156,76.948c4.927,42.525-12.074,65.1-10.164,108.9
			l23.182,28.691c0,0,21.117-45.73,12.939-97.959C2420.027,1490.398,2388.631,1461.465,2388.631,1461.465z"/>
		<path style="fill:#A9B9EB;" d="M2474.039,1485.771c-4.932,27.385-5.83,55.342-2.668,82.986
			c10.182,83.699-34.537,146.646-34.537,146.646l17.324,16.862c0,0,54.431-43.65,43.904-113.704
			C2486.858,1544.543,2474.039,1485.771,2474.039,1485.771z"/>
		<path style="fill:#A9B9EB;" d="M2346.877,1587.832c0,0-19.686-7.141-101.768,2.732c-52.6,6.348-37.09-13.459-86.801,1.215
			c37.723,3.59,50.393,31.24,99.658,28.181c39.4-2.472,78.936-1.855,118.24,1.847L2346.877,1587.832z"/>
		<path style="fill:#A9B9EB;" d="M2187.447,1640.052c0,0,31.928,40.765,104.717,36.069c44.803-2.779,89.758,1.83,133.064,13.639
			l-21.695-36.805c0,0-29.988-22.091-105.205-9.939C2246.648,1651.354,2187.447,1640.052,2187.447,1640.052z"/>
		<path style="fill:#A9B9EB;" d="M2230.342,1709.496c0,0,31.928,40.765,104.718,36.068c44.803-2.777,89.757,1.83,133.065,13.641
			l-21.696-36.807c0,0-29.989-22.09-105.206-9.938C2289.544,1720.797,2230.342,1709.496,2230.342,1709.496z"/>
		<path style="fill:#A9B9EB;" d="M2136.969,1506.508c0,0,23.07,21.189,68.959,16.494c46.533-4.786,80.651,5.461,80.651,5.461
			l-12.989-13.782c0,0-18.954-13.963-66.5-6.298C2174.394,1513.639,2136.969,1506.508,2136.969,1506.508z"/>
		<path style="fill:#A9B9EB;" d="M2306.155,1551.025c0,0-35.79-3.877-88.46,0.39c-33.238,2.589-77.268-17.712-77.268-17.712
			s33.73,47.818,83.445,40.834c57.006-8.027,113.211,0.046,113.211,0.046L2306.155,1551.025z"/>
		<path style="fill:#A9B9EB;" d="M2277.029,1520.201c0,0-29.414-46.869-79.297-56.473c-29.516-5.941-57.831-16.77-83.777-32.041
			c0,0,27.289,48.357,74.023,52.236c43.133,3.695,72.883,32.383,72.883,32.383L2277.029,1520.201z"/>
		<path style="fill:#A9B9EB;" d="M2471.519,1783.098l7.521-3.079c-18.994-46.39-105.006-197.274-214.021-272.969l-4.637,6.681
			C2367.881,1588.385,2452.748,1737.305,2471.519,1783.098z"/>
	</g>
	<g>
		<path style="fill:#A9B9EB;" d="M3235.361,1474.861c0,0,9.156,34.771-31.334,82.308c-41.27,48.43-45.984,88.319-45.984,88.319
			l-30.287,14.877c0,0,10.1-59.916,45.113-97.258C3216.754,1516.422,3235.361,1474.861,3235.361,1474.861z"/>
		<path style="fill:#A9B9EB;" d="M3304.813,1510.581c0,0-1.869,26.438-41.014,53.989c-39.963,28.021-52.514,55.948-52.514,55.948
			l-24.957,11.321c0,0,21.502-46.951,54.536-68.056C3282.146,1537.359,3304.813,1510.581,3304.813,1510.581z"/>
		<path style="fill:#A9B9EB;" d="M3166.575,1519.07c0,0-26.644,9.969-57.272,70c-24.967,48.916-20.029,79.105-35.523,109.033
			l40.85-26.416c7.697-22.07-3.016-40.643,17.475-86.096C3151.274,1543.029,3166.575,1519.07,3166.575,1519.07z"/>
		<path style="fill:#A9B9EB;" d="M2914.492,1659.752c0,0-16.591,23.211-8.527,90.057c6.55,54.535,30.766,67.744,32.839,80.467
			l17.539-22.217c-8.841-23.014-25.062-24.656-33.399-73.816C2915.166,1688.123,2914.492,1659.752,2914.492,1659.752z"/>
		<path style="fill:#A9B9EB;" d="M3103.648,1545.371c0,0-27.038,40.998-37.916,68.766c-15.539,39.443-5.014,65.375-17.99,106.807
			l-29.488,21.561c0,0-8.572-49.141,12.549-97.045C3066.238,1565.07,3103.648,1545.371,3103.648,1545.371z"/>
		<path style="fill:#A9B9EB;" d="M3020.35,1546.497c-2.25,27.463-8.506,54.448-18.568,80.101
			c-31.047,77.511-4.271,149.135-4.271,149.135l-20.871,11.729c0,0-40.982-55.628-13.078-119.993
			C2993.123,1599.48,3020.35,1546.497,3020.35,1546.497z"/>
		<path style="fill:#A9B9EB;" d="M3111.446,1676.936c0,0,20.657-1.824,96.699,28.518c48.725,19.462,38.922-3.441,82.763,23.254
			c-37.016-6.164-56.179,17.072-102.549,1.605c-37.079-12.396-75.072-21.867-113.63-28.327L3111.446,1676.936z"/>
		<path style="fill:#A9B9EB;" d="M3250.735,1767.49c0,0-40.932,30.886-109.398,7.865c-42.171-14.061-86.366-21.094-130.819-20.813
			l30.133-29.703c0,0,34.322-13.509,103.214,17.266C3191.201,1763.236,3250.735,1767.49,3250.735,1767.49z"/>
		<path style="fill:#A9B9EB;" d="M3192.008,1823.032c0,0-40.932,30.887-109.398,7.866c-42.17-14.063-86.366-21.094-130.818-20.815
			l30.131-29.703c0,0,34.322-13.506,103.215,17.268C3132.474,1818.779,3192.008,1823.032,3192.008,1823.032z"/>
		<path style="fill:#A9B9EB;" d="M3333.033,1652.53c0,0-27.473,14.409-70.193-1.766c-43.315-16.424-78.576-15.3-78.576-15.3
			l15.939-9.885c0,0,21.693-8.539,65.246,10.899C3295.402,1649.831,3333.033,1652.53,3333.033,1652.53z"/>
		<path style="fill:#A9B9EB;" d="M3159.786,1652.074c0,0,35.24,5.398,84.56,22.889c31.15,10.938,78.457,2.715,78.457,2.715
			s-44.452,37.178-90.253,17.841c-52.514-22.191-108.358-28.771-108.358-28.771L3159.786,1652.074z"/>
		<path style="fill:#A9B9EB;" d="M3195.506,1629.988c0,0,40.08-37.369,90.264-33.863c29.76,1.827,59.614-1.33,88.333-9.342
			c0,0-38.425,39.334-84.139,31.15c-42.22-7.442-77.993,12.441-77.993,12.441L3195.506,1629.988z"/>
		<path style="fill:#A9B9EB;" d="M2942.461,1832.086l-6.414-4.859c29.986-39.563,150.705-162.072,274.303-206.768l2.736,7.573
			C3091.205,1672.118,2972.08,1793.039,2942.461,1832.086z"/>
	</g>
	<g>
		<g>
			<path style="fill:#FFFFFF;" d="M1661.332,586.592c-5.53-9.778-12.303-19.761-20.132-29.674c-2.971-3.761-2.33-9.22,1.432-12.192
				c3.762-2.972,9.221-2.331,12.192,1.432c8.378,10.609,15.652,21.337,21.62,31.889c2.36,4.173,0.89,9.469-3.283,11.829
				c-0.976,0.552-2.011,0.894-3.058,1.042C1666.674,591.401,1663.141,589.791,1661.332,586.592z M1617.059,530.063
				c-8.656-8.505-17.831-16.466-27.267-23.662c-3.813-2.907-4.547-8.354-1.64-12.166c2.907-3.813,8.354-4.546,12.167-1.639
				c10.011,7.633,19.737,16.073,28.908,25.085c3.419,3.36,3.468,8.856,0.107,12.275c-1.391,1.416-3.148,2.254-4.972,2.511
				C1621.78,532.831,1619.063,532.032,1617.059,530.063z M1177.796,557.515c-4.785,0.304-8.91-3.329-9.214-8.113
				c-0.304-4.785,3.329-8.91,8.113-9.214c11.307-0.718,23.408-2.244,35.886-4.522c4.718-0.861,9.238,2.264,10.099,6.98
				c0.861,4.716-2.264,9.238-6.98,10.099c-4.861,0.888-9.715,1.676-14.427,2.341
				C1193.245,556.218,1185.346,557.036,1177.796,557.515z M1242.021,538.166c-1.266-4.624,1.455-9.399,6.079-10.666
				c11.32-3.101,23.081-6.774,34.958-10.92c4.527-1.582,9.477,0.809,11.057,5.335c1.58,4.526-0.809,9.477-5.335,11.057
				c-12.249,4.275-24.392,8.068-36.092,11.273c-0.363,0.1-0.727,0.174-1.091,0.226
				C1247.335,545.072,1243.188,542.426,1242.021,538.166z M1139.179,556.914c-13.862-1.462-26.748-4.383-38.3-8.682
				c-4.493-1.671-6.78-6.67-5.108-11.163c1.672-4.494,6.67-6.781,11.163-5.109c10.189,3.792,21.651,6.378,34.067,7.688
				c4.768,0.503,8.225,4.776,7.722,9.543c-0.426,4.042-3.563,7.143-7.413,7.686C1140.619,556.976,1139.905,556.991,1139.179,556.914
				z M1559.767,486.592c-10.738-6.021-21.659-11.027-32.46-14.875c-4.516-1.61-6.872-6.575-5.263-11.091
				c1.609-4.516,6.574-6.872,11.091-5.263c11.718,4.176,23.536,9.589,35.124,16.087c4.182,2.345,5.67,7.635,3.325,11.817
				c-1.378,2.458-3.774,3.985-6.364,4.351C1563.403,487.875,1561.49,487.559,1559.767,486.592z M1312.656,514.813
				c-1.837-4.428,0.263-9.508,4.691-11.345c11.135-4.62,22.428-9.655,33.567-14.967c4.328-2.063,9.509-0.227,11.572,4.1
				c2.063,4.328,0.228,9.509-4.1,11.572c-11.407,5.439-22.976,10.597-34.385,15.33c-0.696,0.289-1.406,0.48-2.119,0.581
				C1318.058,520.625,1314.205,518.545,1312.656,514.813z M1380.189,483.613c-2.278-4.218-0.706-9.485,3.513-11.763
				c4.051-2.187,8.02-4.382,11.899-6.576c7.269-4.109,14.789-7.659,22.352-10.55c4.479-1.713,9.496,0.531,11.208,5.009
				s-0.531,9.496-5.009,11.209c-6.756,2.583-13.487,5.761-20.005,9.446c-3.976,2.248-8.044,4.497-12.195,6.738
				c-0.933,0.503-1.918,0.82-2.911,0.959C1385.549,488.579,1381.963,486.897,1380.189,483.613z M1066.251,528.275
				c-9.018-7.609-16.818-16.754-23.184-27.181c-2.498-4.092-1.206-9.434,2.885-11.933c4.092-2.498,9.435-1.207,11.933,2.886
				c5.392,8.831,11.974,16.555,19.563,22.96c3.664,3.092,4.127,8.569,1.036,12.232c-1.433,1.698-3.378,2.71-5.418,2.998
				C1070.705,530.57,1068.217,529.935,1066.251,528.275z M1493.011,463.244c-11.82-1.603-23.583-1.782-34.96-0.531
				c-4.766,0.525-9.054-2.914-9.578-7.68c-0.524-4.766,2.918-9.054,7.68-9.578c12.783-1.406,25.969-1.209,39.191,0.584
				c4.75,0.644,8.08,5.018,7.435,9.769c-0.534,3.939-3.632,6.901-7.384,7.431C1494.624,463.349,1493.823,463.354,1493.011,463.244z"
				/>
		</g>
		<g>
			<polygon style="fill:#BDCDFF;" points="1679.986,556.898 1663.41,594.866 1864.781,695.18 			"/>
			<polygon style="fill:#BDCDFF;" points="1650.205,639.516 1666.868,678.157 1855.797,690.515 			"/>
			<polygon style="fill:#FFFFFF;" points="1864.781,695.18 1539.757,632.013 1641.954,579.493 			"/>
			<polygon style="fill:#FFFFFF;" points="1679.986,556.898 1864.781,695.18 1743.554,519.134 			"/>
		</g>
	</g>
	<ellipse style="fill:#95A6DB;" cx="2099.312" cy="1858.238" rx="1767.047" ry="82.379"/>
	<g>
		<g>
			<g>
				<path style="fill:#264591;" d="M1228.255,1852.517l-611.157,0.387c-56.884,0.037-108.69-46.052-115.711-102.941L333.058,386.061
					c-7.021-56.889,33.401-103.036,90.286-103.071l611.157-0.387c56.884-0.037,108.69,46.052,115.711,102.941l168.33,1363.903
					C1325.562,1806.335,1285.14,1852.48,1228.255,1852.517z"/>
				<path style="fill:#5E7CDB;" d="M1285.019,1852.517l-611.157,0.387c-56.884,0.037-108.69-46.052-115.711-102.941L389.821,386.061
					c-7.021-56.889,33.401-103.036,90.286-103.071l611.157-0.387c56.885-0.037,108.69,46.052,115.711,102.941l168.33,1363.903
					C1382.326,1806.335,1341.903,1852.48,1285.019,1852.517z"/>
				<path style="fill:#FFFFFF;" d="M1254.78,1809.076l-561.403,0.354c-44.369,0.028-84.777-35.921-90.253-80.292L441.089,416.241
					c-5.477-44.373,26.053-80.367,70.422-80.395l561.403-0.355c44.37-0.028,84.778,35.921,90.254,80.294l162.035,1312.896
					C1330.679,1773.055,1299.149,1809.047,1254.78,1809.076z"/>
				<g>
					<path style="fill:#95A6DB;" d="M1230.951,1750.164l-528.54,0.34c-34.27,0.02-65.48-27.74-69.71-62.021l-13.76-111.56
						l-5.94-48.199l-11.45-92.811l-88.229-715.56l-33.6-272.49c-4.23-34.27,20.12-62.08,54.39-62.099l80.39-0.04l1.55,12.54
						c2.87,23.069,23.87,41.75,46.95,41.729l299.19-0.32c23.07-0.02,39.45-18.75,36.59-41.82l-1.53-12.38l65.41-0.04
						c34.26-0.03,65.47,27.75,69.71,62.02l9.22,74.771l143.75,1165.839C1289.581,1722.354,1265.221,1750.144,1230.951,1750.164z"/>
				</g>
				<path style="fill:#8197DB;" d="M928.614,415.484h-252.39c-8.134,0-15.539-6.594-16.538-14.728l0,0
					c-0.999-8.135,4.786-14.729,12.921-14.729h252.389c8.135,0,15.539,6.594,16.538,14.729l0,0
					C942.533,408.89,936.747,415.484,928.614,415.484z"/>
				<path style="fill:#8197DB;" d="M1230.951,1750.164l-528.54,0.34c-34.27,0.02-65.48-27.74-69.71-62.021l-13.76-111.56
					l666.4,111.14C1289.581,1722.354,1265.221,1750.144,1230.951,1750.164z"/>
				<path style="fill:#8197DB;" d="M1141.591,522.224l-628.27,198.129l-33.6-272.49c-4.23-34.27,20.12-62.08,54.39-62.099
					l80.39-0.04l1.55,12.54c2.87,23.069,23.87,41.75,46.95,41.729l299.19-0.32c23.07-0.02,39.45-18.75,36.59-41.82l-1.53-12.38
					l65.41-0.04c34.26-0.03,65.47,27.75,69.71,62.02L1141.591,522.224z"/>
			</g>
		</g>
		<g>
			<g>
				<polygon style="fill:#DE623C;" points="2346.434,1269.883 2327.128,1264.135 2342.448,1226.242 2367.717,1231.004 				"/>
				<path style="fill:#F37A50;" d="M2369.879,1266.785c1.288-20.667,25.857-32.658,26.99-25.168
					c1.324,8.762-2.17,21.851-2.17,21.851c5.725,2.832,32.06-7.118,20.354-40.468l9.055-14.34l-19.479-15.633l-12.876,7.73
					c-40.454,10.086-46.324,22.967-47.777,55.021C2342.544,1287.309,2368.67,1286.215,2369.879,1266.785z"/>
				<path id="c_1_" style="fill:#DE623C;" d="M2394.009,1243.709c-0.647,0.257-1.315,0.365-1.988,0.41
					c0.046,0.109,0.098,0.212,0.142,0.322c2.586,6.507,0.895,13.283-3.773,15.135c-0.766,0.304-1.566,0.441-2.377,0.455
					c0.175,4.453-1.629,8.289-4.962,9.611c-1.323,0.525-2.743,0.584-4.159,0.27c0.465,4.437-1.516,8.574-5.248,10.055
					c-4.668,1.852-10.242-1.15-12.447-6.703c-2.206-5.555-0.209-11.559,4.459-13.41c1.182-0.469,2.422-0.625,3.65-0.508
					c-1.609-5.89,0.164-11.592,4.386-13.266c0.767-0.305,1.567-0.443,2.378-0.457c-0.176-4.451,1.628-8.288,4.962-9.61
					c1.229-0.487,2.542-0.575,3.856-0.336c-0.59-3.919,1.094-7.653,4.375-8.954c3.943-1.564,8.65,0.971,10.513,5.661
					C2399.638,1237.074,2397.952,1242.146,2394.009,1243.709z"/>
				<path style="fill:#DE623C;" d="M2358.297,1214.344c0.984-5.639,6.641-17.115,16.82-18.201c10.178-1.086,24,17.838,15.815,18.201
					c-8.187,0.364-14.813-6.668-14.813-6.668L2358.297,1214.344z"/>
			</g>
			<g>
				<path style="fill:#201D40;" d="M2708.211,799.829c-59.389,0.171-119.891,24.014-118.404,137.332
					c1.488,113.316-8.43,221.689-39.762,238.382c29.748,28.721,239.777,89.022,323.67,12.352
					c-37.316-45.393-58.457-199.336-58.457-241.101C2815.258,889.891,2799.37,799.565,2708.211,799.829z"/>
				<g>
					<path style="fill:#F37A50;" d="M2755.35,1805.424c-2.705-26.98,29.741-231.462,29.741-231.462
						c39.366-180.509,5.378-310.567,5.378-310.567l-107.777,96.844l26.096,180.264c0,0-4.748,13.112-7.254,23.599
						c-13.584,56.863-0.053,124.819,8.313,170.116c3.877,20.99,9.906,65.104,10.064,75.129l-16.999,21.976
						c0,0,61.521,68.085,70.985,68.513c18.395,0.83,12.975-17.388,12.975-17.388
						C2761.586,1856.48,2756.125,1813.148,2755.35,1805.424z"/>
					<path style="fill:#201D40;" d="M2701.859,1855.447l3.385,43.744l7.861,0.354l3.979-40.624
						c20.928,5.342,35.922,43.32,35.922,43.32c14.414,5.17,51.057,8.717,64.098,1.998c3.149-12.78-30.288-21.742-30.288-21.742
						c-3.021,3.578-20.87,6.318-27.208,2.486c-23.341-19.873-34.722-48.767-39.697-75.639
						C2719.91,1809.346,2683.029,1811.917,2701.859,1855.447z"/>
				</g>
				<g>
					<path style="fill:#F37A50;" d="M2615.35,1305.195c-30.135,74.568-33.872,183.789-35.805,222.323
						c-68.154,11.802-201.604,112.591-201.604,112.591l-24.742,1.258c0,0-10.348,81.167-5.141,87.82
						c10.12,12.929,19.301-1.318,19.301-1.318c2.887-32.19,23.368-55.557,27.555-61.073c6.291-8.288,211.512-58.942,252.078-76.257
						c40.566-17.314,78.646-278.025,78.646-278.025L2615.35,1305.195z"/>
					<path style="fill:#201D40;" d="M2336.264,1654.664l-27.635,27.693l4.324,5.526l29.799-20.9
						c8.539,17.264-8.453,49.465-8.453,49.465c4.871,12.756,23.75,39.609,35.869,44.533c10.477-5.291-2.876-33.121-2.876-33.121
						c-4.175,0.033-16.395-10.453-17.482-16.967c-0.106-27.334,12.837-51.815,28.132-70.785
						C2377.941,1640.109,2354.785,1616.646,2336.264,1654.664z"/>
				</g>
				<path style="fill:#F37A50;" d="M2766.795,1012.366c0,0,59.129,47.522,106.92,109.056c13.165,21.791,26.115,61.901,26.115,61.901
					c-16.479,5.628-160.482-109.242-160.482-109.242s-19.143-9.397-12.188-33.868
					C2734.664,1013.814,2766.795,1012.366,2766.795,1012.366z"/>
				<g>
					<g>
						<g>
							<path style="fill:#DE623C;" d="M2722.065,975.693l-41.202-6.171l3.283,38.244c0,0,20.865,37.601,40.663,31.125
								s10.142-23.086,10.142-23.086L2722.065,975.693z"/>
						</g>
					</g>
				</g>
				<g>
					<path style="fill:#F37A50;" d="M2663.411,936.958c16.352,45.139,41.321,66.144,77.45,58.404
						c29.854-6.397,54.102-54.804,41.383-100.097c-12.718-45.292-51.865-73.913-87.439-63.925
						C2659.232,841.329,2647.388,892.726,2663.411,936.958z"/>
					<g>
						<path style="fill:#201D40;" d="M2700.785,918.924c0.484-0.214,0.904-0.588,1.168-1.093c3.841-7.346,13.319-8.36,13.414-8.37
							c1.327-0.13,2.303-1.31,2.176-2.637c-0.127-1.328-2.226-3.527-4.701-3.031c-0.488,0.098-10.59,1.174-15.664,10.882
							c-0.619,1.184,0.328,3.558,1.512,4.177C2699.367,919.208,2700.136,919.209,2700.785,918.924z"/>
					</g>
					<g>
						<path style="fill:#201D40;" d="M2774.472,902.014c0.228-0.125,0.438-0.288,0.624-0.49c0.9-0.986,0.833-2.516-0.152-3.418
							c-7.656-6.999-16.627-3.626-17.005-3.479c-1.242,0.484-1.862,1.887-1.378,3.132c0.482,1.241,1.878,1.858,3.12,1.382
							c0.295-0.11,6.613-2.387,11.997,2.536C2772.462,902.393,2773.59,902.497,2774.472,902.014z"/>
					</g>
					<path style="fill:#DE623C;" d="M2744.109,925.895c3.489,3.323,6.571,6.767,9.854,8.662c1.107,0.639,1.508,2.063,0.924,3.199
						c-2.41,4.69-9.822,8.762-14.379,10.912c-0.666,0.313-1.255-0.551-0.721-1.058c4.518-4.283,6.41-7.38,7.189-9.072
						c0.389-0.841,0.34-1.81-0.11-2.619c-1.032-1.857-3.091-5.647-4.507-8.795C2741.87,926.035,2743.246,925.073,2744.109,925.895z"
						/>
					<path style="fill:#FFFFFF;" d="M2723.614,966.672c-1.405-1.188-0.726-3.471,1.103-3.677c4.65-0.525,12.301-1.549,19.438-3.23
						c7.138-1.68,14.441-4.177,18.838-5.782c1.729-0.631,3.354,1.108,2.627,2.799c-2.238,5.199-7.439,13.513-18.379,16.088
						C2736.301,975.446,2727.938,970.326,2723.614,966.672z"/>
					<path style="fill:#201D40;" d="M2638.041,937.957c42.637-7.4,100.858-58.683,104.909-81.281
						c-9.333-26.597-39.636-43.648-64.093-30.212C2654.401,839.899,2618.575,904.786,2638.041,937.957z"/>
					<path style="fill:#201D40;" d="M2728.869,874.296c0,0,27.729,12.958,54.326,15.595c-12.896-29.103-22.277-51.215-38.729-56.671
						c-16.451-5.455-33.736-4.568-33.736-4.568L2728.869,874.296z"/>
					<g>
						<path style="fill:#F37A50;" d="M2674.545,920.421c8.988,6.45,11.994,17.642,6.717,24.997
							c-5.279,7.355-16.844,8.09-25.832,1.64c-8.988-6.451-11.995-17.642-6.717-24.997
							C2653.992,914.706,2665.557,913.971,2674.545,920.421z"/>
						<g>
							<path style="fill:#DE623C;" d="M2670.475,943.76c0.319-0.175,0.604-0.425,0.824-0.743c3.178-4.587,3.299-9.608,0.324-13.429
								c-3.047-3.914-8.484-5.548-12.93-3.885c-1.252,0.469-1.887,1.861-1.418,3.113c0.467,1.25,1.861,1.885,3.112,1.418
								c2.437-0.911,5.694,0.111,7.417,2.325c1.656,2.127,1.484,4.863-0.482,7.703c-0.76,1.098-0.486,2.604,0.611,3.366
								C2668.713,944.167,2669.697,944.185,2670.475,943.76z"/>
						</g>
					</g>
					<path d="M2756.345,912.401c0.46,3.616,3.765,6.175,7.382,5.714c3.615-0.46,6.174-3.765,5.714-7.381
						c-0.46-3.616-3.765-6.175-7.382-5.714C2758.443,905.48,2755.885,908.785,2756.345,912.401z"/>
					<path d="M2708.268,926.028c0.491,3.858,4.018,6.587,7.876,6.096c3.858-0.491,6.588-4.017,6.097-7.875s-4.018-6.588-7.875-6.098
						C2710.506,918.643,2707.776,922.169,2708.268,926.028z"/>
				</g>
				<g>
					<path style="fill:#F37A50;" d="M2856.92,999.619c-3.281,54.723,7.81,120.78,5.713,155.248l37.197,28.456
						c19.689-27.431,8.893-110.044-14.851-165.035C2875.588,1006.01,2856.92,999.619,2856.92,999.619z"/>
					<g>
						<g>
							<path style="fill:#DE623C;" d="M2882.446,962.783c0,0,9.612,19.946,13.846,38.273c-0.13,0.409-8.216,12.004-11.313,17.231
								c-11.446-6.362-20.638-9.583-29.112-17.81C2859.63,970.158,2879.629,962.82,2882.446,962.783z"/>
						</g>
						<path style="fill:#494C7F;" d="M2887.33,1033.512L2887.33,1033.512c-8.746,1.682-17.2-4.044-18.883-12.79l-14.668-76.247
							l31.672-6.093l14.668,76.246C2901.803,1023.375,2896.076,1031.828,2887.33,1033.512z"/>
						<path id="c_7_" style="fill:#F37A50;" d="M2900.178,1002.182c-0.457-0.566-1.009-1.008-1.597-1.395
							c0.097-0.076,0.198-0.142,0.294-0.221c5.696-4.584,7.645-11.611,4.354-15.695c-0.541-0.67-1.197-1.207-1.927-1.637
							c2.448-3.956,2.782-8.37,0.433-11.286c-0.934-1.157-2.193-1.942-3.641-2.385c2.702-3.792,3.03-8.572,0.399-11.836
							c-3.291-4.083-9.9-4.221-14.761-0.308c-4.861,3.913-6.134,10.397-2.843,14.481c0.833,1.035,1.88,1.812,3.056,2.339
							c-4.49,4.525-5.81,10.619-2.834,14.313c0.541,0.67,1.196,1.207,1.926,1.637c-2.448,3.957-2.781,8.371-0.432,11.287
							c0.867,1.075,2.015,1.83,3.332,2.289c-2.551,3.258-2.941,7.518-0.628,10.388c2.78,3.449,8.362,3.566,12.467,0.261
							C2901.882,1011.105,2902.957,1005.631,2900.178,1002.182z"/>
						<path style="fill:#F37A50;" d="M2854.928,1000.687c-5.023-7.845-8.313-31.061,8.9-41.204
							c19.748-11.637,12.066,5.004,7.508,8.724c-12.287,10.027-2.039,18.064-6.68,26.958
							C2862.215,999.843,2858.15,1005.721,2854.928,1000.687z"/>
					</g>
					<g>
						<path style="fill:#95A6DB;" d="M2934.457,768.78c0,0-24.521,72.095-77.793,104.521c1.737,4.054,35.91,62.089,35.91,62.089
							s67.158-13.45,132.01,5.079C2998.527,899.937,2934.457,768.78,2934.457,768.78z"/>
						<path style="fill:#494C7F;" d="M3009.448,837.821c24.515,48.919,33.04,94.264,19.04,101.28
							c-14,7.016-45.222-26.955-69.736-75.874c-24.516-48.919-33.041-94.265-19.041-101.279
							C2953.711,754.931,2984.933,788.901,3009.448,837.821z"/>
						<path style="fill:#494C7F;" d="M2859.588,871.46c-12.739,5.791-53.035,24.736-37.021,60.475
							c12.841,28.66,52.069,14.265,70.008,3.455C2885.211,922.856,2859.588,871.46,2859.588,871.46z"/>
						<path style="fill:#768FDB;" d="M2945.836,834.122c0,0,27.215-15.829,42.848,7.912c12.739,22.583-11.939,38.778-19.467,40.515
							C2961.23,872.859,2945.836,834.122,2945.836,834.122z"/>
					</g>
				</g>
				<g>
					<g>
						<g>
							<g>
								<path style="fill:#E62552;" d="M2563.004,1519.904c9.709-32.484-0.959-222.799,84.75-286.023l147.49,15.541
									c34.083,55.17,26.311,209.477,30.68,341.272C2659.65,1633.858,2680.863,1511.912,2563.004,1519.904z"/>
							</g>
						</g>
					</g>
				</g>
				<g>
					<g>
						<g>
							<path style="fill:#E62552;" d="M2797.043,1213.027c0-32.299,27.993-80.688,14.574-113.295
								c-9.773-26.229-28.975-85.401-49.898-89.397c-8.49-1.621-19.105-2.527-29.564-3.24c0,0,6.138,27.392-7.68,28.5
								c-26.6,2.134-40.578-31.968-40.578-31.968c-14.342-1.37-64.357,13.557-64.326,18.958
								c0.156,42.31,18.764,110.729,30.004,156.473c2.085,23.292,0.436,41.359-1.897,54.54c-4.259,13.739-9.46,21.606-9.492,24.577
								c0,0,98.593,33.496,161.323-1.039C2799.508,1257.137,2797.043,1234.842,2797.043,1213.027z"/>
						</g>
					</g>
				</g>
				<path style="fill:#F37A50;" d="M2421.668,1210.654c44.492-33.643,70.377-75.571,90.876-103.361l-40.503-37.182
					c-23.824,24.235-47.934,72.374-69.561,124.206C2403.686,1209.726,2421.668,1210.654,2421.668,1210.654z"/>
				<path style="fill:#F37A50;" d="M2656.953,1076.809c0,0-93.949,32.808-144.409,30.484c-24.899-5.313-40.503-37.182-40.503-37.182
					l158.354-56.489c0,0,19.951-7.527,33.036,14.29C2677.547,1051.446,2656.953,1076.809,2656.953,1076.809z"/>
			</g>
			<g>
				<path style="fill:#2C2858;" d="M3323.795,813.765c-3.013-41.013,8.845-77.246,41.547-95.697
					c33.145-18.703,74.667-0.36,74.667-0.36l0,0c0.003,0,35.147-12.503,66.998,22.582c31.853,35.087,7.759,65.962,20.789,91.551
					c7.717,15.153,46.954,18.277,36.818,67.636c-2.923,14.235-20.044,23.816-34.545,24.769c-25.478,1.675-49.203-8.175-59.53,1.675
					c-34.033,32.455-109.452,20.717-120.007-8.971c-3.272-9.206-71.114,8.608-64.347-54.09
					C3289.615,831.087,3326.486,850.413,3323.795,813.765z"/>
				<g>
					<path style="fill:#F5A3B7;" d="M3530.564,1015.66c34.471-17.714,113.577-47.526,146.916-80.079l-51.198-36.41
						c0,0-117.024,38.163-143.086,52.042C3463.291,967.453,3491.717,1007.846,3530.564,1015.66z"/>
					<g>
						<path style="fill:#DE623C;" d="M3725.25,702.67c-12.549-16.327-19.598-5.012-26.113-1.649
							c-18.168,9.382-5.566-33.442-25.567-27.559c5.329,30.285-6.884,29.558,2.324,58.771l-2.155,12.143l29.252,21.509l3.267-13.403
							C3725.117,744.008,3745.504,728.238,3725.25,702.67z"/>
						<path style="fill:#F37A50;" d="M3729.772,709.31c-4.01-9.857-11.01-14.55-14.285-16.124
							c-3.911-1.773-15.781,2.491-17.751,7.039c-1.97,4.547-0.563,9.446,3.055,11.266c0.978,0.443,1.907,0.593,3.083,0.401
							c-1.628,4.792-0.222,9.691,3.054,11.266c0.637,0.198,1.271,0.396,1.908,0.593c-0.304,3.67,1.156,7.052,3.748,8.135
							c0.978,0.443,2.201,0.545,3.082,0.4c-0.693,3.131,0.304,7.758,2.896,8.842c2.509,3.476,7.399,1.794,10.218-1.114
							C3734.538,734.067,3736.562,725.999,3729.772,709.31z"/>
						<path style="fill:#F5A3B7;" d="M3672.492,741.015c0,0-35.831,113.127-46.21,158.156c-4.122,17.881,37.071,33.631,51.198,36.41
							c15.266-14.996,25.512-52.186,30.289-176.784C3697.058,746.525,3672.492,741.015,3672.492,741.015z"/>
					</g>
				</g>
				<g>
					<path style="fill:#F5A3B7;" d="M3339.725,1015.66c-38.734-10.951-128.18-54.491-161.52-87.044l39.779-37.323
						c0,0,114.639,31.767,140.699,45.646C3361.246,960.833,3359.197,1001.313,3339.725,1015.66z"/>
					<g>
						<path style="fill:#DE623C;" d="M3124.354,688.069c12.549-16.327,19.598-5.014,26.113-1.649
							c18.168,9.381,5.566-33.442,25.566-27.56c-5.328,30.284,6.885,29.557-2.324,58.771l2.156,12.145l-29.252,21.508l-3.268-13.403
							C3124.486,729.406,3104.1,713.635,3124.354,688.069z"/>
						<path style="fill:#F37A50;" d="M3119.83,694.707c4.011-9.856,11.01-14.549,14.286-16.123
							c3.911-1.773,15.78,2.491,17.751,7.039c1.97,4.546,0.563,9.445-3.055,11.266c-0.979,0.443-1.908,0.592-3.083,0.399
							c1.628,4.793,0.222,9.692-3.054,11.267c-0.637,0.198-1.272,0.395-1.908,0.593c0.303,3.67-1.156,7.052-3.748,8.135
							c-0.978,0.443-2.201,0.545-3.082,0.4c0.693,3.131-0.304,7.758-2.896,8.842c-2.509,3.475-7.4,1.794-10.218-1.114
							C3115.064,719.466,3113.041,711.397,3119.83,694.707z"/>
						<path style="fill:#F5A3B7;" d="M3177.111,726.414c0,0,35.494,118.462,45.873,163.49c4.121,17.881-30.651,35.932-44.779,38.712
							c-4.352-16.745-37.57-63.039-36.371-184.421C3152.546,731.921,3177.111,726.414,3177.111,726.414z"/>
					</g>
				</g>
				<g>
					<path style="fill:#DE623C;" d="M3393.465,865.577v93.861c0,0,34.853,16.687,65.057,0c-4.646-20.857-7.403-87.304-7.403-87.304
						L3393.465,865.577z"/>
					<path style="fill:#F5A3B7;" d="M3355.072,936.938h38.393c0,0,16.373,27.189,39.873,25.087
						c23.499-2.101,22.061-25.087,22.061-25.087l47.335,6.28c0,0,36.433,63.592,30.825,114.303
						c-5.959,53.883-44.146,75.827-42.084,157.754c-60.104,18.906-119.861,18.906-161.581-30.918
						c15.104-57.277,15.913-103.926,4.058-172.897C3340.132,978.433,3355.072,936.938,3355.072,936.938z"/>
					<g>
						<path style="fill:#F37A50;" d="M3499.627,830.587c0,49.215-29.679,89.111-66.289,89.111c-36.611,0-66.29-39.896-66.29-89.111
							c0-49.214,29.679-89.11,66.29-89.11C3469.948,741.477,3499.627,781.373,3499.627,830.587z"/>
						<path style="fill:#2C2858;" d="M3362.64,830.587c36.595-4.679,70.618-25.07,89.835-51.42
							c12.414,30.799,47.152,51.42,47.152,51.42s26.033-58.913-21.313-90.693C3433.146,709.576,3325.379,730.291,3362.64,830.587z"
							/>
						<path d="M3405.451,849.602c-3.891,0-7.045-3.154-7.045-7.045c0-3.891,3.154-7.045,7.045-7.045s7.045,3.154,7.045,7.045
							C3412.496,846.447,3409.342,849.602,3405.451,849.602z"/>
						<path d="M3461.599,849.602c-3.891,0-7.044-3.154-7.044-7.045c0-3.891,3.153-7.045,7.044-7.045
							c3.892,0,7.046,3.154,7.046,7.045C3468.645,846.447,3465.49,849.602,3461.599,849.602z"/>
						<g>
							<path style="fill:#2C2858;" d="M3474.012,836.209c-1.155,0.001-2.281-0.592-2.913-1.658c-1.74-2.934-3.848-4.693-6.265-5.227
								c-4.176-0.924-8.313,1.863-8.354,1.892c-1.537,1.051-3.642,0.668-4.701-0.862c-1.059-1.53-0.691-3.624,0.834-4.691
								c0.264-0.184,6.52-4.491,13.607-2.963c4.35,0.939,7.949,3.765,10.698,8.401c0.954,1.606,0.423,3.682-1.185,4.635
								C3475.193,836.057,3474.599,836.209,3474.012,836.209z"/>
						</g>
						<g>
							<path style="fill:#2C2858;" d="M3392.086,836.552c-0.742,0-1.489-0.243-2.113-0.743c-1.458-1.168-1.693-3.298-0.525-4.756
								c4.447-5.552,9.369-8.573,14.631-8.98c6.787-0.526,11.453,3.66,11.648,3.839c1.379,1.261,1.475,3.401,0.213,4.78
								c-1.255,1.372-3.379,1.474-4.758,0.234c-0.1-0.085-2.874-2.43-6.667-2.099c-3.292,0.288-6.584,2.461-9.786,6.458
								C3394.061,836.118,3393.078,836.552,3392.086,836.552z"/>
						</g>
						<path style="fill:#DE623C;" d="M3440.326,851.805c9.113,6.57,11.955,9.267,15.471,11.457
							c-2.429,8.135-15.188,12.175-18.816,11.237c8.887-4.381,10.139-10.315,10.139-10.315L3440.326,851.805z"/>
						<path style="fill:#C4204A;" d="M3362.559,828.683c0,0-6.066-81.58,74.422-85.609c34.938-1.749,58.349,22.813,58.349,22.813
							s-16.26-40.34-67.206-35.766C3377.835,734.278,3341.388,769.462,3362.559,828.683z"/>
						<path style="fill:#F37A50;" d="M3376.951,837.463c7.596,9.62,7.975,21.983,0.844,27.613
							c-7.13,5.631-19.068,2.395-26.664-7.226c-7.597-9.621-7.975-21.983-0.845-27.613
							C3357.416,824.607,3369.354,827.842,3376.951,837.463z"/>
						<g>
							<path style="fill:#DE623C;" d="M3370.284,858.247c-0.292,0-0.59-0.057-0.876-0.177c-1.148-0.486-1.686-1.808-1.201-2.956
								c1.61-3.814,1.646-6.882,0.108-9.119c-2.374-3.454-7.981-4.52-12.054-4.385c-1.244,0.044-2.288-0.934-2.329-2.179
								c-0.042-1.245,0.935-2.288,2.179-2.33c5.465-0.181,12.518,1.387,15.922,6.338c1.695,2.467,3.13,6.799,0.33,13.429
								C3372,857.729,3371.164,858.247,3370.284,858.247z"/>
						</g>
						<path style="fill:#FFFFFF;" d="M3415.75,886.53c-0.943-1.542,0.396-3.462,2.167-3.089c4.499,0.95,11.953,2.361,19.131,3.001
							c7.177,0.641,14.763,0.571,19.359,0.435c1.808-0.054,2.787,2.072,1.585,3.423c-3.697,4.157-11.119,10.303-22.121,9.321
							C3424.869,898.641,3418.652,891.276,3415.75,886.53z"/>
					</g>
					<path style="fill:#FFFFFF;" d="M3393.465,935.581c0,0,13.625,24.261,37.906,26.551c-5.377,9.274-10.961,16.307-22.498,13.56
						C3387.244,970.542,3393.465,935.581,3393.465,935.581z"/>
					<path style="fill:#FFFFFF;" d="M3455.398,936.938c-1.525,6.052,1.357,23.446-24.027,25.193
						c2.502,4.631,7.652,18.093,22.557,13.285C3470.961,969.922,3462.031,940.39,3455.398,936.938z"/>
				</g>
				<g>
					<path style="fill:#494C7F;" d="M3156.734,1366.598l-28.888,31.643c0,0-16.204,3.275-27.872,8.177
						c-2.226,0.938-4.287,1.931-6.039,2.975c-0.063,0.035-0.125,0.078-0.188,0.113c-2.137,1.291-4.927,2.916-8.139,4.619
						c-1.871,0.994-3.895,2.017-6.01,3.03c-12.711,6.036-28.981,11.425-39.056,5.973c-22.862-29.079,12.415-64.667,41.558-78.013
						c29.152-13.346,38.227-33.029,52.143-28.633C3148.158,1320.878,3156.734,1366.598,3156.734,1366.598z"/>
				</g>
				<path style="fill:#F37A50;" d="M3140.563,1353.854c5.666,4.137,26.414,21.035,26.414,21.035l-28.169,41.234
					c0,0-5.405-8.309-18.023-20.149C3094.607,1371.409,3127.082,1344.008,3140.563,1353.854z"/>
				<path style="fill:#4364CC;" d="M3320.593,1497.739c-42.956-69.628-159.681-135.96-159.681-135.96s-19.823,26.453-28.225,55.885
					c0,0,105.52,113.996,136.25,145.111C3299.967,1586.205,3342.055,1539.76,3320.593,1497.739z"/>
				<polygon style="fill:#F37A50;" points="3384.959,1620.048 3361.779,1653.604 3398.825,1667.527 3422.479,1640.863 				"/>
				<path style="fill:#4364CC;" d="M3489.318,1264.068l-105.882,58.213c0,0,105.819,146.006,169.46,181.064
					c11.078,6.104,71.626-29.334,70.868-42.053C3621,1414.926,3489.318,1264.068,3489.318,1264.068z"/>
				<path style="fill:#4364CC;" d="M3543.855,1436.498c-11.591-1.413-158.896,183.55-158.896,183.55s24.365,20.968,49.891,30.408
					c103.512-99.677,155.285-140.004,189.394-179.896C3636.803,1438.383,3587.573,1414.09,3543.855,1436.498z"/>
				<path style="fill:#768FDB;" d="M3430.323,1294.205c0,0-94.593-102.816-121.698-76.729
					c-27.104,26.088-32.969,237.031-48.265,316.193c-7.639,39.531,50.599,53.397,64.326,34.226
					C3349.464,1533.291,3430.323,1294.205,3430.323,1294.205z"/>
				<g>
					<path style="fill:#494C7F;" d="M3440.752,1737.233c-45.416-13.927-76.865-40.749-91.534-55.444
						c-5.532-5.542-5.641-14.48-0.233-20.146c7.457-7.82,16.908-17.316,22.997-22.813c1.202-1.085,2.271-2.009,3.165-2.737
						l35.156,18.49l1.422,0.746c-0.932,7.19,0.63,13.393,3.584,18.939c0.92,1.756,1.99,3.441,3.162,5.076
						c1.537,2.147,3.258,4.211,5.074,6.199c1.338,1.475,2.74,2.91,4.156,4.325
						C3442.642,1704.726,3459.816,1716.545,3440.752,1737.233z"/>
				</g>
				<path style="fill:#768FDB;" d="M3292.899,1277.85c0,0-6.396-42.852,36.994-93.492c36.613,28.879,73.229,46.693,161.581,30.918
					c7.148,45.568,3.271,58.657,3.271,58.657l-73.982,41.923L3292.899,1277.85z"/>
			</g>
			<path style="fill:#DE623C;" d="M1667.059,1347.656c0,0-15.815-4.08-10.826-9.109c8.012-8.074,8.455,3.125,16.939,4.836
				c7.522,1.518-3.909-35.771-40.3-29.592c-5.283,0.896-15.459-8.186-15.459-8.186l-11.42,27.365l0.739,5.658
				c-0.271,20.903,9.824,27.225,17.975,32.222L1667.059,1347.656z"/>
			<g>
				<g>
					<path style="fill:#0E6A41;" d="M1406.229,1052.676c-28.23,42.501-6.728,108.354,42.751,214.844
						c44.532-2.467,54.736-32.049,54.736-32.049s-10.553-98.951-19.571-128.713
						C1462.502,1035.324,1419.839,1032.186,1406.229,1052.676z"/>
					<path style="fill:#0E6A41;" d="M1619.819,1305.596l-116.104-70.125l-54.736,32.049c31.944,28.621,72.222,54.125,156.834,73.461
						C1616.816,1326.113,1619.819,1305.596,1619.819,1305.596z"/>
				</g>
				<g>
					<path style="fill:#181630;" d="M1034.104,1393.564l-29.232,32.019c0,0-16.398,3.313-28.206,8.274
						c-2.252,0.949-4.337,1.954-6.11,3.012c-0.063,0.035-0.127,0.078-0.19,0.114c-2.162,1.308-4.986,2.951-8.236,4.675
						c-1.893,1.006-3.942,2.042-6.083,3.066c-12.863,6.107-29.327,11.563-39.521,6.044c-23.136-29.427,12.563-65.44,42.055-78.944
						c29.499-13.504,38.683-33.424,52.764-28.976C1025.427,1347.297,1034.104,1393.564,1034.104,1393.564z"/>
					<path style="fill:#FFFFFF;" d="M976.667,1433.857c-2.252,0.949-4.337,1.954-6.11,3.012l-8.559-21.457
						c-0.698-1.74,0.152-3.72,1.892-4.41c0.47-0.185,0.95-0.262,1.425-0.238c1.288,0.064,2.478,0.859,2.984,2.129L976.667,1433.857z
						"/>
					<path style="fill:#FFFFFF;" d="M962.131,1441.658c-1.893,1.006-3.942,2.042-6.083,3.066l-7.075-17.72
						c-0.691-1.747,0.159-3.718,1.899-4.417c0.462-0.186,0.951-0.261,1.418-0.238c1.288,0.063,2.486,0.859,2.992,2.137
						L962.131,1441.658z"/>
				</g>
				<path style="fill:#F37A50;" d="M1017.74,1380.666c5.734,4.185,26.73,21.287,26.73,21.287l-28.505,41.726
					c0,0-5.471-8.408-18.239-20.389C971.236,1398.432,1004.099,1370.703,1017.74,1380.666z"/>
				<path style="fill:#C4204A;" d="M1199.92,1526.271c-43.469-70.459-161.589-137.584-161.589-137.584s-20.059,26.767-28.561,56.553
					c0,0,106.779,115.356,137.877,146.844C1179.048,1615.792,1221.638,1568.793,1199.92,1526.271z"/>
				<polygon style="fill:#F37A50;" points="1455.354,1791.956 1469.375,1830.771 1502.615,1808.436 1494.551,1773.279 				"/>
				<path style="fill:#C4204A;" d="M1359.159,1305.605l-112.776,47.244c0,0,90.854,158.247,151.14,200.338
					c10.494,7.328,75.215-21.85,75.813-34.73C1475.518,1471.504,1359.159,1305.605,1359.159,1305.605z"/>
				<path style="fill:#C4204A;" d="M1397.523,1553.188c-7.976,8.719,57.831,238.769,57.831,238.769s31.592-7.751,54.369-23.23
					c-21.283-143.851-24.079-210.203-36.896-261.746C1453.699,1477.725,1404.754,1504.004,1397.523,1553.188z"/>
				<path style="fill:#E62552;" d="M1310.961,1320.691c0,0-85.358-80.2-112.787-53.801c-27.428,26.4-43.728,216.02-59.206,296.127
					c-7.729,40.002,51.204,54.035,65.094,34.635C1229.136,1562.635,1310.961,1320.691,1310.961,1320.691z"/>
				<path style="fill:#201D40;" d="M1455.821,846.294c12.964-37.335-8.215-89.495-49.609-80.409
					c-41.394,9.085-65.821,22.441-80.264-27.745c-11.501-39.966-62.247-64.424-115.792-41.512
					c-68.503,29.312-21.534,65.379-60.08,68.851c-38.546,3.473-75.901,11.068-56.068,60.516
					c19.833,49.447,77.11,69.941,130.349,40.389c53.238-29.553,48.045,14.843,80.025,13.439
					C1349.855,877.827,1455.821,846.294,1455.821,846.294z"/>
				<path style="fill:#F37A50;" d="M1375.952,894.891c-17.681,46.625-2.328,95.681,34.291,109.566
					c36.62,13.887,80.639-12.653,98.319-59.278c17.681-46.625,2.328-95.68-34.292-109.566
					C1437.651,821.727,1393.632,848.267,1375.952,894.891z"/>
				<path style="fill:#F37A50;" d="M1381.244,949.765l42.136,50.146c0,0-3.373,27.41-3.528,31.269
					c-0.653,16.281-21.539,15.669-34,0.791c-12.46-14.879-18.901-31.666-18.901-31.666L1381.244,949.765z"/>
				<path style="fill:#2C2858;" d="M1513.816,936.717c-12.297-5.886-76.352-50.485-79.792-66.326
					c-10.618,30.649-69.301,48.334-72.127,37.13c-0.582-64.17,32.917-106.491,100.47-95.689
					C1555.002,826.644,1513.816,936.717,1513.816,936.717z"/>
				<path d="M1424.417,930.591c0.885,4.246,5.045,6.972,9.292,6.087c4.246-0.885,6.972-5.044,6.087-9.291s-5.044-6.972-9.291-6.087
					C1426.259,922.184,1423.533,926.344,1424.417,930.591z"/>
				<path d="M1476.143,949.006c0.831,3.986,4.735,6.545,8.722,5.714c3.986-0.83,6.544-4.734,5.714-8.721
					c-0.831-3.987-4.735-6.544-8.722-5.715C1477.871,941.115,1475.313,945.019,1476.143,949.006z"/>
				<g>
					<path style="fill:#2C2858;" d="M1500.591,941.473c0.304-0.02,0.609-0.096,0.905-0.231c1.444-0.664,2.115-2.517,1.499-4.138
						c-4.783-12.59-16.017-13.617-16.492-13.654c-1.563-0.124-2.909,1.192-2.996,2.939c-0.088,1.743,1.104,3.256,2.665,3.388
						c0.368,0.034,8.233,0.877,11.596,9.731C1498.257,940.797,1499.413,941.552,1500.591,941.473z"/>
				</g>
				<g>
					<path style="fill:#2C2858;" d="M1422.43,914.001c-0.217-0.214-0.4-0.471-0.535-0.767c-0.661-1.445,0.04-3.287,1.564-4.113
						c11.84-6.418,21.022,0.135,21.407,0.416c1.265,0.927,1.425,2.803,0.352,4.184c-1.071,1.377-2.961,1.746-4.229,0.827
						c-0.302-0.214-6.81-4.708-15.138-0.194C1424.64,915.011,1423.271,914.829,1422.43,914.001z"/>
				</g>
				<path style="fill:#DE623C;" d="M1469.058,952.05c0.475,5.341,0.521,10.482,1.871,14.478c0.455,1.346-0.255,2.83-1.578,3.352
					c-5.46,2.148-14.644,0.105-20.031-1.447c-0.787-0.228-0.644-1.383,0.174-1.414c6.922-0.259,10.779-1.458,12.673-2.298
					c0.942-0.418,1.613-1.263,1.831-2.27c0.503-2.31,1.566-6.989,2.696-10.661C1467.083,950.522,1468.94,950.729,1469.058,952.05z"
					/>
				<path style="fill:#F37A50;" d="M1386.375,919.913c4.742,10.725,1.471,22.564-7.305,26.444
					c-8.777,3.881-19.736-1.668-24.477-12.392c-4.742-10.725-1.471-22.564,7.306-26.444
					C1370.674,903.641,1381.633,909.188,1386.375,919.913z"/>
				<g>
					<path style="fill:#DE623C;" d="M1374.121,937.125c0.377-0.078,0.743-0.244,1.066-0.5c4.638-3.67,6.31-8.724,4.472-13.518
						c-1.881-4.909-6.891-8.244-11.912-7.93c-1.413,0.089-2.487,1.306-2.398,2.719c0.088,1.414,1.306,2.487,2.719,2.399
						c2.751-0.172,5.74,1.869,6.804,4.647c1.022,2.669,0.004,5.389-2.867,7.662c-1.111,0.878-1.299,2.491-0.419,3.602
						C1372.208,936.994,1373.201,937.317,1374.121,937.125z"/>
				</g>
				<path style="fill:#3F964F;" d="M1383.37,1334.366c-106.615,1.229-195.18-57.657-195.18-57.657
					c4.887-12.299,17.908-37.226,52.661-72.992c8.872-37.926,27.55-125.646,33.87-147.059c31.91-51.896,42.548-34.982,42.321-65.098
					l50.529,6.945c0,0,9.082,34.557,36.964,40.882c17.429,3.951,15.694-15.045,15.694-15.045s24.573,19.19,31.159,26.846
					c0,0,14.984,65.404,10.817,83.508c-7.597,33.008-59.448,121.744-59.448,121.744S1382.566,1324.875,1383.37,1334.366z"/>
				<g>
					<path style="fill:#F37A50;" d="M1085.831,1243.207c-0.707-12.465-0.276-30.484,6.723-29.385
						c11.237,1.764,14.925,6.018,23.275,8.294c7.404,2.021,3.858-11.776-22.258-33.425l1.033-10.024l-26.955-8.833l-0.743,4.717
						c-17.808,9.934-27.179,35.057-17.462,61.186C1053.598,1246.906,1086.773,1259.828,1085.831,1243.207z"/>
					<path style="fill:#0E6A41;" d="M1350.831,1009.555c-36.097-36.057-101.042-23.203-215.199,4.301
						c-1.67,33.029,7.516,59.102,7.516,59.102s108.34,5.287,139.296,2.316C1356.743,1068.145,1368.235,1026.939,1350.831,1009.555z"
						/>
					<path style="fill:#0E6A41;" d="M1098.347,1183.445l76.477-112.059c0,0-24.054-44.23-39.19-57.531
						c-27.917,38.402-54.253,85.211-72.446,155.026C1077.879,1180.119,1098.347,1183.445,1098.347,1183.445z"/>
				</g>
				<g>
					<path style="fill:#181630;" d="M1600.356,1812.85c-38.164,29.229-94.419,41.386-115.145,44.834
						c-7.817,1.301-15.244-3.861-16.735-11.646c-2.059-10.74-4.328-24.105-5.278-32.353c-0.188-1.628-0.32-3.051-0.395-4.216
						l35.893-18.096l1.45-0.732c5.376,4.992,11.404,7.351,17.709,8.178c1.986,0.273,4.003,0.383,6.039,0.377
						c2.674-0.004,5.384-0.209,8.089-0.536c2.002-0.235,4.009-0.548,6.006-0.882C1559.01,1794.2,1594.516,1784.986,1600.356,1812.85
						z"/>
					<path style="fill:#FFFFFF;" d="M1523.895,1799.195l0.263,10.566c0.043,1.657-1.271,3.045-2.936,3.088
						c-1.666,0.035-3.045-1.277-3.088-2.936l-0.277-11.096C1519.842,1799.092,1521.859,1799.201,1523.895,1799.195z"/>
					<path style="fill:#FFFFFF;" d="M1537.99,1797.777l0.202,7.996c0.036,1.664-1.278,3.045-2.936,3.088
						c-1.665,0.043-3.044-1.271-3.088-2.936l-0.185-7.267C1533.986,1798.424,1535.992,1798.111,1537.99,1797.777z"/>
				</g>
				<g>
					<path style="fill:#0E6A41;" d="M1313.685,1327.457l-4.512-1.102c20.294-47.144,62.719-124.219,88.087-171.469
						c2.313-4.307,4.482-8.348,6.478-12.072c23.102-43.109,3.142-102.506,2.949-103.081l4.888-0.114
						c0.204,0.606,5.624,15.774,7.546,35.957c1.781,18.703,1.262,45.928-11.324,69.414c-1.997,3.726-4.167,7.767-6.479,12.074
						C1375.983,1204.249,1333.901,1280.494,1313.685,1327.457z"/>
				</g>
				<path style="fill:#FFFFFF;" d="M1424.347,973.71c-0.246-1.669,1.514-3,2.838-2.14c3.369,2.188,9.004,5.665,14.678,8.368
					c5.673,2.703,11.925,4.888,15.746,6.125c1.503,0.487,1.577,2.692,0.127,3.553c-4.462,2.648-12.665,5.985-21.362,1.843
					C1427.679,987.317,1425.101,978.844,1424.347,973.71z"/>
			</g>
			<g id="c_5_">
				<path style="fill:#4364CC;" d="M2064.873,996.453c-55.399,32.254,1.413,176.821,59.146,222.194c0,0,70.004-11.469,54.999-40.387
					C2136.354,1096.039,2108.25,971.198,2064.873,996.453z"/>
				<path style="fill:#4364CC;" d="M2343.361,1226.043l-172.83-61.662c0,0-25.592,22.691-46.512,54.266
					c27.568,18.99,78.149,39.727,204.021,45.288C2336.893,1254.354,2343.361,1226.043,2343.361,1226.043z"/>
				<g>
					<polygon id="v-2_1_" style="fill:#F37A50;" points="2018.387,911.855 2018.42,911.86 2046.729,916.696 2044.378,988.57 
						2005.989,996.609 1973.61,973.459 1990.515,907.307 					"/>
					<g>
						<g>
							<path style="fill:#F37A50;" d="M1970.061,854.734c-1.658,49.594,28.574,90.853,67.524,92.155
								c38.95,1.302,71.87-37.846,73.528-87.439c1.658-49.593-28.574-90.853-67.523-92.155
								C2004.639,765.994,1971.719,805.141,1970.061,854.734z"/>
							<path style="fill:#DE623C;" d="M2062.873,871.32c5.484,10.301,12.466,22.889,12.466,22.889s-4.337,10.161-18.082,9.352
								c5.981-1.999,12.002-5.511,10.171-13.426C2065.598,882.22,2062.873,871.32,2062.873,871.32z"/>
							<path style="fill:#201D40;" d="M1960.856,813.105c3.586-46.918,48.629-55,48.629-55s-8.961-4.937-4.319-18.526
								c6.027,5.247,13.924,8.53,21.898,9.063c53.727,3.591,85.543,17.838,76.825,37.674c-3.103,7.058,30.551,16.561,7.114,62.921
								c-2.304-6.322-1.621-28.489-11.101-34.98c-9.515-6.513-6.22,11.425-29.124,4.897c-23.11-6.585-36.811-18.919-55.525-12.481
								c-15.129,6.14-41.688,59.558-41.546,63.536C1973.385,861.085,1959.28,833.723,1960.856,813.105z"/>
							<path style="fill:#201D40;" d="M2107.063,886c0,0-8.904,25.614-15.836,31.698c0.646-11.559-25.443-8.575-36.421-9.433
								c-19.879-1.553-36.864-22.261-47.762,2.369c-25.191-2.72-25.101-59.163-25.101-59.163
								c-24.514,52.326-3.723,96.949,55.837,112.627C2077.02,974.428,2107.588,927.252,2107.063,886z"/>
							<path d="M2035.094,863.727c-3.754-0.37-6.496-3.713-6.126-7.467c0.37-3.752,3.714-6.496,7.468-6.125
								c3.752,0.37,6.495,3.713,6.125,7.467C2042.189,861.355,2038.847,864.098,2035.094,863.727z"/>
							<path d="M2091.055,870.963c-3.754-0.37-6.496-3.713-6.125-7.467c0.37-3.753,3.713-6.496,7.467-6.125
								c3.753,0.371,6.496,3.714,6.125,7.467C2098.15,868.592,2094.809,871.334,2091.055,870.963z"/>
							<g>
								<path style="fill:#201D40;" d="M2104.591,858.771c-1.151-0.113-2.216-0.814-2.739-1.938
									c-1.445-3.095-3.373-5.055-5.729-5.825c-4.069-1.332-8.466,1.039-8.51,1.064c-1.634,0.896-3.693,0.307-4.599-1.321
									c-0.905-1.63-0.333-3.679,1.292-4.593c0.28-0.158,6.938-3.833,13.85-1.615c4.242,1.363,7.551,4.533,9.834,9.423
									c0.791,1.695,0.059,3.712-1.637,4.503C2105.783,858.736,2105.176,858.829,2104.591,858.771z"/>
							</g>
							<g>
								<path style="fill:#201D40;" d="M2021.695,850.446c-0.74-0.074-1.46-0.389-2.033-0.949c-1.338-1.308-1.362-3.453-0.055-4.79
									c4.977-5.095,10.179-7.621,15.461-7.509c6.814,0.142,11.051,4.773,11.229,4.969c1.25,1.392,1.135,3.534-0.258,4.784
									c-1.385,1.245-3.512,1.136-4.764-0.235c-0.091-0.095-2.625-2.704-6.436-2.746c-3.309-0.037-6.803,1.804-10.387,5.471
									C2023.705,850.207,2022.684,850.542,2021.695,850.446z"/>
							</g>
							<g>
								<path style="fill:#F37A50;" d="M1981.268,851.59c7.015,9.325,6.515,21.538-1.116,27.277s-19.503,2.835-26.518-6.49
									c-7.015-9.325-6.515-21.537,1.116-27.278C1962.38,839.359,1974.253,842.265,1981.268,851.59z"/>
								<g>
									<path style="fill:#DE623C;" d="M1969.816,873.799c0.376-0.076,0.742-0.238,1.065-0.489
										c4.644-3.617,6.347-8.632,4.557-13.416c-1.833-4.9-6.792-8.258-11.791-7.985c-1.407,0.079-2.485,1.28-2.408,2.686
										c0.077,1.408,1.279,2.485,2.686,2.409c2.738-0.149,5.697,1.906,6.734,4.679c0.996,2.663-0.038,5.362-2.913,7.602
										c-1.112,0.865-1.312,2.468-0.445,3.58C1967.915,873.652,1968.899,873.982,1969.816,873.799z"/>
								</g>
							</g>
						</g>
					</g>
					<g>
						<path style="fill:#DE623C;" d="M2055.23,930.099c-17.301,0-28.391-14.631-28.535-14.825c-0.92-1.243-0.658-2.996,0.585-3.916
							c1.241-0.919,2.991-0.659,3.913,0.581l0,0c0.648,0.87,16.159,21.149,38.805,8.326c1.346-0.762,3.054-0.289,3.815,1.058
							c0.762,1.345,0.289,3.053-1.057,3.815C2066.422,928.725,2060.535,930.099,2055.23,930.099z"/>
					</g>
				</g>
				<polygon style="fill:#F37A50;" points="2064.746,1782.267 2072.676,1812.782 2117.234,1797.992 2116.296,1775.859 				"/>
				<polygon style="fill:#F37A50;" points="1761.741,1800.01 1768.155,1771.469 1817.806,1774.636 1806.66,1797.611 				"/>
				<path style="fill:#181630;" d="M2117.189,1796.834c24.165,36.901,87.688,11.869,83.297,60.021
					c-96.532-5.197-136.692-6.48-136.692-6.48c0.652-11.076,3.809-37.291,6.523-47.483L2117.189,1796.834z"/>
				<path style="fill:#181630;" d="M1806.448,1795.353c22.23,38.099,89.339,17.401,82.472,65.265l-136.177-9.236
					c0-17.674,5.728-41.332,8.964-51.371L1806.448,1795.353z"/>
				<path style="fill:#181630;" d="M2017.828,1244.377l-125.871,70.753c0,0,109.804,193.679,171.43,252.863
					c10.728,10.303,70.006-7.877,73.944-20.693C2151.689,1500.58,2017.828,1244.377,2017.828,1244.377z"/>
				<path style="fill:#181630;" d="M2053.133,1543.195c-21.535,88.734,4.585,245.604,4.585,245.604s39.733,1.393,69.894-10.678
					c-3.293-151.242,16.506-201.945,9.006-257.006C2117.934,1487.873,2069.668,1493.917,2053.133,1543.195z"/>
				<path style="fill:#201D40;" d="M1990.494,1275.521l-144.249-6.469c0,0-9.16,222.451,11.871,305.266
					c3.661,14.417,50.046,32.867,60.163,24.07C1955.162,1566.316,1990.494,1275.521,1990.494,1275.521z"/>
				<path style="fill:#201D40;" d="M1857.565,1538.164c-58.451,70.151-96.894,230.249-96.894,230.249s28.765,21.806,61.157,24.269
					c75.628-131.765,86.383-172.139,109.167-217.437C1945.868,1531.598,1894.132,1501.225,1857.565,1538.164z"/>
				<g id="v_1_">
					<path id="h-5_1_" style="fill:#768FDB;" d="M1883.276,973.935c0,0,43.293-22.055,92.947-7.299
						c48.875,40.225,68.242,19.265,68.242,19.265c20.488,0.441,42.591,10.708,42.591,10.708
						c5.179,102.788-19.742,315.868-19.742,315.868s-75.1,13.237-130.964,0c-55.677-14-104.551-37.418-104.551-37.418
						S1868.718,1033.455,1883.276,973.935z"/>
				</g>
				<g>
					<path style="fill:#4364CC;" d="M1951.141,983.959c-48.797-67.288-148.81,49.456-199.584,103.59c0,0,4.484,68.178,54.229,65.859
						C1844.826,1139.926,1980.625,1024.613,1951.141,983.959z"/>
					<path style="fill:#DE623C;" d="M1637.428,1360.145c1.288-20.667,25.856-32.658,26.989-25.168
						c1.325,8.762-2.169,21.851-2.169,21.851c5.724,2.832,32.059-7.118,20.353-40.468l15.832-15.1l-30.929-26.588l-8.203,19.445
						c-40.455,10.086-49.385,24.01-50.839,56.063C1607.031,1381.709,1636.218,1379.574,1637.428,1360.145z"/>
					<path style="fill:#4364CC;" d="M1701.878,1320.496l111.617-173.152c0,0-38.997-29.658-61.939-59.795
						c-25.745,28.694-46.501,76.756-93.134,193.803C1664.561,1292.861,1701.878,1320.496,1701.878,1320.496z"/>
				</g>
			</g>
			<path id="c_3_" style="fill:#F37A50;" d="M1631.95,1353.115c0.637,0.027,1.236,0.185,1.816,0.398
				c0.002-0.107-0.003-0.215,0.001-0.324c0.26-6.404,4.197-11.444,8.792-11.255c0.753,0.031,1.475,0.214,2.159,0.503
				c1.511-3.789,4.448-6.326,7.729-6.191c1.302,0.054,2.512,0.533,3.58,1.322c1.263-3.885,4.46-6.609,8.133-6.457
				c4.595,0.188,8.14,4.775,7.917,10.242c-0.223,5.469-4.127,9.747-8.723,9.559c-1.163-0.049-2.258-0.38-3.243-0.935
				c-0.847,5.526-4.454,9.636-8.608,9.464c-0.754-0.031-1.475-0.213-2.159-0.504c-1.511,3.791-4.448,6.329-7.729,6.193
				c-1.21-0.049-2.341-0.465-3.352-1.154c-0.966,3.498-3.765,5.996-6.994,5.863c-3.882-0.161-6.876-4.033-6.687-8.652
				C1624.771,1356.57,1628.069,1352.956,1631.95,1353.115z"/>
		</g>
		<g>
			<polygon style="fill:#F37A50;" points="796.958,1683.292 801.093,1709.084 844.33,1697.822 843.935,1676.031 			"/>
			<path style="fill:#181630;" d="M844.491,1695.017c23.194,35.418,84.371,9.267,80.158,55.484l-131.962-0.057
				c0.626-10.631,4.211-39.832,6.817-49.613L844.491,1695.017z"/>
			<path style="fill:#181630;" d="M759.81,1184.158l-106.389,59.803c0,0,92.809,163.702,144.897,213.727
				c9.067,8.709,59.171-6.658,62.5-17.49C872.954,1400.708,759.81,1184.158,759.81,1184.158z"/>
			<path style="fill:#181630;" d="M789.652,1436.729c-25.35,83.297,1.366,252.084,1.366,252.084s33.584,1.178,59.076-9.025
				c-2.783-127.832,16.46-215.184,10.121-261.723C844.423,1389.969,803.627,1395.076,789.652,1436.729z"/>
			<path style="fill:#201D40;" d="M736.708,1210.483l-121.922-5.468c0,0-7.743,188.021,10.034,258.018
				c3.094,12.185,42.3,27.78,50.851,20.345C706.844,1456.271,736.708,1210.483,736.708,1210.483z"/>
			<path style="fill:#201D40;" d="M669.538,1490.343c-14.487,8.292-32.791,21.7-56.533,38.382l-11.45-92.807
				c11.374-3.676,22.628-5.828,33.559-5.99C678.133,1420.976,700.393,1466.537,669.538,1490.343z"/>
			<g>
				<g>
					<g>
						<g>
							<g>
								<g>
									<g>
										<g>
											<path style="fill:#F37A50;" d="M976.783,950.461c-5.497,6.42-15.216,21.373-21.817,28.515l-20.615-10.609
												c-6.523-26.224,5.389-53.594,6.419-56.904c2.676-8.598,3.401-12.803,4.776-12.996c1.375-0.192,9.599,0.805,6.105,13.442
												c-4.386,15.857,13.081,16.8,27.195-15.659c3.534-8.126,14.466-8.021,14.895,0.255
												C994.216,905.623,1001.796,921.249,976.783,950.461z"/>
										</g>
									</g>
								</g>
							</g>
						</g>
						<path style="fill:#C4204A;" d="M831.633,1047.948c-4.84,12.843,11.935,66,16.667,65.193
							c52.48-28.767,109.526-134.999,109.526-134.999l-28.693-17.917C929.132,960.226,893.993,1004.625,831.633,1047.948z"/>
					</g>
					<path style="fill:#C4204A;" d="M722.467,979.393c19.87,34.779,111.47,131.874,125.833,133.749l5.016-68.333
						c0,0-68.826-105.991-82.844-123.448C746.268,891.076,689.918,922.674,722.467,979.393z"/>
					<g>
						<path style="fill:#201D40;" d="M996.37,893.988l-43.002,66.799c-1.723,2.677-5.29,3.45-7.966,1.727l-9.03-5.813
							c-2.677-1.723-3.45-5.29-1.727-7.965l43.002-66.801c1.724-2.676,5.29-3.449,7.966-1.727l9.03,5.813
							C997.319,887.745,998.092,891.311,996.37,893.988z"/>
						<path style="fill:#FFFFFF;" d="M992.383,891.38l-43.002,66.8c-1.723,2.676-5.289,3.449-7.966,1.726l-9.03-5.812
							c-2.676-1.724-3.449-5.29-1.727-7.967l43.002-66.8c1.723-2.676,5.29-3.449,7.965-1.727l9.031,5.814
							C993.333,885.137,994.106,888.704,992.383,891.38z"/>
					</g>
					<path style="fill:#F37A50;" d="M974.792,928.28c1.034-4.91-0.451-25.333,5.757-25.265c1.515,0.535,2.084,3.533,2.084,3.533
						c0.882-3.026,2.675-16.332,7.611-13.982c4.208,3.681,3.548,6.57,3.548,6.57L974.792,928.28z"/>
				</g>
				<path style="fill:#DE623C;" d="M755.486,923.463c6.102,10.564-53.156,13.212-58.242-7.726
					c-5.086-20.938,14.67-76.12,14.67-76.12l52.16,20.517C764.075,860.134,747.545,909.712,755.486,923.463z"/>
				<g>
					<path style="fill:#F37A50;" d="M695.407,794.59c-0.688,48.292,29.501,87.877,67.429,88.418
						c37.928,0.542,69.233-38.169,69.921-86.461c0.688-48.292-29.501-87.878-67.429-88.419
						C727.4,707.589,696.095,746.299,695.407,794.59z"/>
					<path d="M811.837,812.642c1.664,3.581,5.915,5.136,9.497,3.472c3.581-1.664,5.135-5.916,3.472-9.497
						c-1.664-3.581-5.916-5.135-9.497-3.471C811.727,804.809,810.173,809.06,811.837,812.642z"/>
					<path d="M764.219,806.671c1.801,3.876,6.403,5.559,10.28,3.757c3.877-1.802,5.559-6.403,3.758-10.281
						c-1.801-3.877-6.404-5.559-10.281-3.757C764.101,798.191,762.417,802.794,764.219,806.671z"/>
					<path style="fill:#DE623C;" d="M798.104,812.388c2.524,11.073,5.872,24.678,5.872,24.678s-6.664,8.438-19.368,4.173
						c6.128-0.353,12.679-2.116,12.977-10.018C797.885,823.321,798.104,812.388,798.104,812.388z"/>
					<g>
						<path style="fill:#201D40;" d="M812.455,796.194c0.843,0.407,1.872,0.371,2.708-0.181c0.083-0.054,2.913-1.836,5.788-1.027
							c2.027,0.569,3.771,2.353,5.179,5.297c0.654,1.367,2.292,1.945,3.658,1.291c1.366-0.653,1.944-2.291,1.291-3.657
							c-2.135-4.465-5.068-7.235-8.719-8.234c-5.343-1.461-10.04,1.63-10.237,1.763c-1.259,0.843-1.595,2.547-0.751,3.806
							C811.653,795.671,812.03,795.988,812.455,796.194z"/>
					</g>
					<g>
						<path style="fill:#201D40;" d="M776.225,791.625c-0.896,0.271-1.908,0.079-2.648-0.597c-0.074-0.065-2.595-2.262-5.56-1.906
							c-2.091,0.251-4.088,1.744-5.934,4.436c-0.856,1.25-2.563,1.568-3.813,0.712c-1.25-0.856-1.568-2.564-0.712-3.813
							c2.798-4.083,6.123-6.367,9.884-6.791c5.505-0.62,9.669,3.158,9.843,3.319c1.114,1.028,1.183,2.763,0.155,3.877
							C777.098,791.233,776.676,791.489,776.225,791.625z"/>
					</g>
					<path style="fill:#FFFFFF;" d="M799.216,858.362c1.459-1.143,0.86-3.465-0.972-3.741c-4.659-0.702-12.319-2.018-19.438-3.976
						c-7.119-1.957-14.375-4.742-18.738-6.521c-1.716-0.7-3.417,0.99-2.748,2.718c2.059,5.315,6.98,13.875,17.892,16.875
						C786.122,866.718,794.729,861.877,799.216,858.362z"/>
					<path style="fill:#2C2858;" d="M707.804,816.789c3.907-17.24,11.4-16.883,24.218-33.192
						c6.754-22.375,19.489-35.868,37.45-22.397c18.437,13.829,34.538,14.924,43.732,10.164
						c21.364-11.059,19.563,23.386,19.563,23.386s21.614-36.128,9.178-55.937c-17.743-28.258-27.642-14.217-47.583-33.683
						c-19.943-19.466-55.441-17.418-65.414-4.809c-10.514,13.293-9.836,18.827-32.393,24.705
						c-22.557,5.877-39.4,29.127-25.462,54.978c13.938,25.851-22.185,31.195,4.916,58.265c10.512,10.501,28.836,14.049,33.212,10.4
						C704.626,839.618,705.285,827.903,707.804,816.789z"/>
					<g>
						<g>
							<path style="fill:#F37A50;" d="M722.053,795.888c5.076,10.159,2.451,21.763-5.863,25.917
								c-8.314,4.154-19.169-0.714-24.245-10.874c-5.076-10.16-2.451-21.763,5.863-25.916
								C706.122,780.86,716.977,785.729,722.053,795.888z"/>
						</g>
						<g>
							<path style="fill:#DE623C;" d="M708.575,814.048c-0.214-0.095-0.415-0.23-0.592-0.405c-0.787-0.777-0.795-2.044-0.018-2.831
								c2.857-2.893,4.029-5.504,3.482-7.762c-0.91-3.759-6.396-6.313-8.432-6.979c-1.05-0.346-1.624-1.475-1.28-2.526
								c0.344-1.05,1.475-1.624,2.525-1.279c0.385,0.126,9.462,3.168,11.078,9.842c0.896,3.697-0.627,7.572-4.524,11.518
								C710.212,814.236,709.315,814.377,708.575,814.048z"/>
						</g>
					</g>
				</g>
				<path style="fill:#E62552;" d="M793.256,1229.203c-42.398,2.883-164.961,18.984-202.149-1.58
					c-11.988-23.314,11.052-131.402,17.408-174.877c18.125-123.961,28.962-158.654,87.924-163.317
					c13.214,8.362,45.307,18.608,60.788,20.807c0,0,28.574,53.468,30.674,89.789c2.13,36.83-5.648,100.763-9.909,137.408
					C773.261,1178.13,791.432,1202.922,793.256,1229.203z"/>
				<path style="fill:#C4204A;" d="M549.211,1011.39c0,0,95.474-137.499,135.36-114.758
					c30.439,24.729-40.633,120.601-126.633,185.532L549.211,1011.39z"/>
			</g>
		</g>
	</g>
	<g>
		<path style="fill:#FFFFFF;" d="M2815.225,652.721h269.031c21.222,0,38.426-17.204,38.426-38.426V499.492
			c0-21.222-17.204-38.425-38.426-38.425h-269.031c-21.221,0-38.425,17.203-38.425,38.425v114.803
			C2776.8,635.517,2794.004,652.721,2815.225,652.721z"/>
		<path style="fill:#FFFFFF;" d="M2825.781,644.134v71.347c0,5.728,7.706,7.573,10.301,2.468l37.498-73.815H2825.781z"/>
		<path style="fill:#E3EAFF;" d="M2821.901,520.965h252.438c9.709,0,17.578-7.871,17.578-17.579l0,0
			c0-9.708-7.869-17.578-17.578-17.578h-252.438c-9.708,0-17.579,7.87-17.579,17.578l0,0
			C2804.322,513.094,2812.193,520.965,2821.901,520.965z"/>
		<path style="fill:#E3EAFF;" d="M2821.901,576.727h252.438c9.709,0,17.578-7.871,17.578-17.579l0,0
			c0-9.708-7.869-17.578-17.578-17.578h-252.438c-9.708,0-17.579,7.87-17.579,17.578l0,0
			C2804.322,568.856,2812.193,576.727,2821.901,576.727z"/>
		<path style="fill:#E3EAFF;" d="M2819.32,632.488h161.999c8.282,0,14.997-6.714,14.997-14.998v-5.162
			c0-8.284-6.715-14.998-14.997-14.998H2819.32c-8.283,0-14.998,6.714-14.998,14.998v5.162
			C2804.322,625.773,2811.037,632.488,2819.32,632.488z"/>
	</g>
	<g>
		<g>
			<path style="fill:#7F99EB;" d="M2205.98,481.304c12.486,37.318-7.645,77.692-44.963,90.179
				c-37.318,12.485-77.693-7.645-90.179-44.963c-12.485-37.318,7.645-77.692,44.963-90.178
				C2153.12,423.856,2193.494,443.986,2205.98,481.304z"/>
		</g>
		<g>
			<g>
				<path style="fill:#FFFFFF;" d="M2101.742,492.557c6.282-2.102,13.078,1.287,15.181,7.569c2.102,6.282-1.287,13.079-7.569,15.18
					c-6.281,2.102-13.078-1.287-15.18-7.569C2092.072,501.455,2095.461,494.658,2101.742,492.557z"/>
				<path style="fill:#FFFFFF;" d="M2159.637,473.186c6.282-2.103,13.078,1.287,15.18,7.569c2.103,6.281-1.286,13.078-7.568,15.18
					c-6.281,2.102-13.078-1.287-15.18-7.569C2149.967,482.085,2153.355,475.288,2159.637,473.186z"/>
			</g>
		</g>
		<g>
			<path style="fill:#FFFFFF;" d="M2115.439,531.448c-0.604,0.202-1.191,0.488-1.734,0.859c-2.426,1.659-3.024,4.379-1.34,6.077
				c8.311,8.375,23.383,10.825,37.508,6.1c13.716-4.589,23.959-14.903,26.096-26.277c0.445-2.373-1.561-4.268-4.479-4.231
				c-2.92,0.035-5.646,1.989-6.092,4.362c-1.485,7.914-8.612,15.089-18.155,18.283c-9.828,3.287-20.314,1.583-26.096-4.243
				C2119.839,531.059,2117.537,530.747,2115.439,531.448z"/>
		</g>
	</g>
	<g>
		<g>
			<path style="fill:#7F99EB;" d="M3138.762,1137.589c-13.496,36.966-54.403,55.989-91.367,42.492
				c-36.965-13.497-55.99-54.403-42.493-91.368s54.403-55.988,91.368-42.492S3152.259,1100.624,3138.762,1137.589z"/>
		</g>
		<g>
			<g>
				<path style="fill:#FFFFFF;" d="M3050.237,1081.416c6.222,2.271,9.425,9.158,7.152,15.381c-2.272,6.223-9.157,9.425-15.38,7.152
					c-6.223-2.271-9.425-9.158-7.152-15.379C3037.129,1082.347,3044.015,1079.145,3050.237,1081.416z"/>
				<path style="fill:#FFFFFF;" d="M3107.583,1102.355c6.222,2.271,9.425,9.156,7.153,15.381c-2.272,6.221-9.158,9.424-15.381,7.152
					c-6.223-2.272-9.425-9.158-7.152-15.381C3094.475,1103.285,3101.36,1100.083,3107.583,1102.355z"/>
			</g>
		</g>
		<g>
			<path style="fill:#FFFFFF;" d="M3036.705,1120.365c-0.598-0.219-1.234-0.36-1.891-0.408c-2.93-0.215-5.094,1.539-4.835,3.916
				c1.28,11.728,11.538,23.04,25.528,28.148c13.586,4.961,28.025,3.279,36.785-4.282c1.827-1.578,1.439-4.31-0.865-6.101
				c-2.305-1.793-5.654-1.963-7.482-0.387c-6.094,5.262-16.141,6.432-25.594,2.98c-9.733-3.555-16.871-11.424-17.762-19.584
				C3040.389,1122.805,3038.784,1121.125,3036.705,1120.365z"/>
		</g>
	</g>
	<g>
		<g>
			<path style="fill:#FFFFFF;" d="M2437.227,674.088c-15.994,34.523-56.947,49.543-91.47,33.549
				c-34.522-15.994-49.544-56.947-33.55-91.47c15.995-34.523,56.947-49.544,91.471-33.549
				C2438.201,598.612,2453.221,639.565,2437.227,674.088z"/>
		</g>
		<g>
			<g>
				<path style="fill:#CDD8FA;" d="M2356.479,612.805c5.811,2.692,8.34,9.586,5.647,15.398c-2.692,5.81-9.587,8.338-15.397,5.646
					c-5.812-2.693-8.34-9.586-5.647-15.398C2343.773,612.641,2350.667,610.112,2356.479,612.805z"/>
				<path style="fill:#CDD8FA;" d="M2410.037,637.618c5.811,2.693,8.34,9.586,5.646,15.397c-2.691,5.811-9.586,8.34-15.396,5.648
					c-5.813-2.692-8.34-9.586-5.648-15.397C2397.332,637.454,2404.225,634.926,2410.037,637.618z"/>
			</g>
		</g>
		<g>
			<path style="fill:#CDD8FA;" d="M2340.291,649.237c-0.559-0.258-1.162-0.447-1.789-0.547c-2.807-0.443-5.033,1.071-4.977,3.382
				c0.285,11.404,9.254,23.132,22.319,29.187c12.688,5.878,26.737,5.427,35.788-1.15c1.889-1.372,1.736-4.035-0.34-5.948
				c-2.076-1.914-5.289-2.349-7.178-0.977c-6.298,4.577-16.072,4.891-24.9,0.8c-9.092-4.211-15.331-12.372-15.529-20.304
				C2343.642,651.884,2342.231,650.136,2340.291,649.237z"/>
		</g>
	</g>
	<g>
		<g>
			<path style="fill:#FFFFFF;" d="M366.383,1094.984c13.782,31.268-0.392,67.787-31.66,81.57
				c-31.268,13.783-67.789-0.392-81.571-31.66c-13.783-31.269,0.392-67.789,31.66-81.57
				C316.081,1049.541,352.601,1063.716,366.383,1094.984z"/>
		</g>
		<g>
			<g>
				<path style="fill:#CDD8FA;" d="M277.155,1113.055c5.263-2.32,11.411,0.067,13.731,5.33c2.32,5.264-0.066,11.41-5.33,13.731
					c-5.263,2.32-11.411-0.065-13.731-5.328C269.506,1121.521,271.892,1115.375,277.155,1113.055z"/>
				<path style="fill:#CDD8FA;" d="M325.663,1091.674c5.264-2.32,11.411,0.065,13.731,5.33c2.32,5.263-0.066,11.41-5.33,13.73
					c-5.264,2.32-11.411-0.066-13.731-5.33C318.014,1100.141,320.4,1093.994,325.663,1091.674z"/>
			</g>
		</g>
		<g>
			<path style="fill:#CDD8FA;" d="M292.11,1145.586c-0.506,0.223-0.991,0.518-1.43,0.882c-1.964,1.628-2.265,4.028-0.673,5.361
				c7.857,6.575,21.085,7.488,32.919,2.272c11.493-5.066,19.524-14.804,20.461-24.809c0.196-2.088-1.69-3.564-4.211-3.3
				c-2.522,0.263-4.723,2.171-4.919,4.259c-0.651,6.961-6.24,13.736-14.236,17.261c-8.233,3.63-17.437,2.995-22.902-1.579
				C295.883,1144.898,293.868,1144.811,292.11,1145.586z"/>
		</g>
	</g>
	<g>
		<path style="fill:#CDD8FA;" d="M3748.229,1571.314l28.493,90.625c1.086,3.455-0.83,7.128-4.279,8.213l-157.502,49.519
			c-3.449,1.084-7.122-0.832-8.208-4.287l-28.493-90.625c-1.087-3.455,0.829-7.128,4.278-8.213l157.502-49.519
			C3743.469,1565.943,3747.143,1567.859,3748.229,1571.314z"/>
		<path style="fill:#FFFFFF;" d="M3748.229,1571.314l1.575,5.01l-55.558,74.104c-5.328,7.403-14.849,10.486-23.506,7.611
			l-91.602-30.418l-0.899-2.861c-1.085-3.451,0.833-7.129,4.284-8.215l157.491-49.516
			C3743.466,1565.945,3747.144,1567.863,3748.229,1571.314z"/>
	</g>
	<g>
		<path style="fill:#CDD8FA;" d="M2692.853,306.03l-37.024,95.613c-1.412,3.645-5.502,5.451-9.141,4.042l-166.17-64.347
			c-3.639-1.409-5.445-5.499-4.034-9.144l37.024-95.613c1.412-3.644,5.502-5.452,9.141-4.042l166.17,64.347
			C2692.457,298.296,2694.264,302.386,2692.853,306.03z"/>
		<path style="fill:#FFFFFF;" d="M2692.853,306.03l-2.046,5.286l-96.77,25.06c-9.48,2.653-19.586-1.161-24.948-9.417L2512.34,239.6
			l1.168-3.019c1.41-3.642,5.506-5.45,9.146-4.04l166.158,64.343C2692.454,298.294,2694.263,302.39,2692.853,306.03z"/>
	</g>
	<g>
		<g>
			<path style="fill:#FFFFFF;" d="M1598.173,896.059c-0.387-2.248-0.211-4.449,0.361-6.52c2.692-20.362,31.105-23.798,71.015-31.638
				c6.673-1.309,1.485-8.526-3.842-25.41c-3.465-10.981,0.846-29.501,13.088-31.607c20.183-3.474,3.495,15.718,28.087,51.843
				c13.14,19.303,32.435,3.902,36.055,24.94l8.242,47.887c1.409,8.188,1.956,16.198-9.39,19.485
				c-10.997,3.186-7.106,10.708-23.282,13.492l-80.969,13.936c-8.248,1.418-16.106-4.11-17.519-12.321
				c-0.586-3.405,0.079-6.711,1.58-9.555c-5.016-1.763-8.985-6.038-9.947-11.623c-0.584-3.396,0.076-6.701,1.574-9.539
				c-5.029-1.756-9.008-6.035-9.971-11.628c-0.699-4.061,0.319-8.026,2.517-11.177
				C1601.905,904.477,1598.978,900.731,1598.173,896.059L1598.173,896.059z"/>
			<path style="fill:#BDCDFF;" d="M1654.296,901.73l-38.608,6.645c-5.25,0.903-10.658-1.045-14.116-5.082
				c-1.423-1.664-1.221-4.169,0.456-5.594c1.672-1.424,4.189-1.218,5.616,0.446c1.638,1.921,4.212,2.84,6.703,2.412l39.533-6.805
				c3.917-0.673,6.557-4.394,5.886-8.293c-0.671-3.9-4.403-6.524-8.32-5.85l-26.417,4.546c-2.167,0.373-4.228-1.075-4.599-3.233
				c-0.372-2.157,1.086-4.211,3.253-4.584l26.42-4.547c8.248-1.42,16.106,4.104,17.519,12.315c0.788,4.579-0.646,8.998-3.451,12.295
				c3.225,2.228,5.589,5.685,6.303,9.831c0.791,4.592-0.655,9.027-3.479,12.324c3.206,2.226,5.55,5.673,6.262,9.81
				c0.861,5.003-0.888,9.849-4.237,13.208c2.804,2.226,4.866,5.4,5.518,9.188c1.414,8.21-4.146,16.044-12.394,17.463l-24.608,4.235
				c-5.25,0.904-10.662-1.039-14.119-5.076c-1.428-1.663-1.226-4.168,0.447-5.592c1.678-1.416,4.192-1.228,5.614,0.437
				c1.647,1.919,4.223,2.843,6.713,2.414l24.608-4.234c3.917-0.675,6.558-4.395,5.886-8.294c-0.67-3.9-4.403-6.524-8.32-5.85
				l-29.194,5.024c-5.25,0.903-10.667-1.043-14.12-5.081c-1.429-1.668-1.227-4.173,0.446-5.592c1.687-1.445,4.196-1.228,5.615,0.437
				c1.671,1.953,4.183,2.854,6.714,2.419l31.693-5.454c3.917-0.674,6.557-4.399,5.886-8.299c-0.671-3.899-4.403-6.523-8.321-5.85
				l-36.306,6.248c-5.25,0.904-10.663-1.039-14.12-5.077c-1.427-1.663-1.225-4.168,0.446-5.592c1.683-1.422,4.192-1.227,5.615,0.437
				c1.671,1.947,4.182,2.85,6.713,2.414l37.298-6.418c3.917-0.675,6.558-4.395,5.886-8.295
				C1661.946,903.684,1658.218,901.055,1654.296,901.73L1654.296,901.73z"/>
		</g>
		<path style="fill:#BDCDFF;" d="M1753.58,946.732l25.21-4.338c3.492-0.601,5.836-3.918,5.235-7.41l-12.893-74.917
			c-0.601-3.492-3.919-5.836-7.411-5.234l-25.211,4.338c-3.492,0.601-5.835,3.92-5.234,7.411l12.893,74.918
			C1746.77,944.99,1750.087,947.333,1753.58,946.732z"/>
	</g>
	<g>
		<g>
			<path style="fill:#E3EAFF;" d="M3366.498,310.544c0.542-2.214,0.52-4.423,0.094-6.529c-1.271-20.499-29.377-25.902-68.646-36.496
				c-6.565-1.77-0.889-8.608,5.599-25.082c4.22-10.713,1.205-29.488-10.859-32.441c-19.895-4.868-4.579,15.438-31.621,49.768
				c-14.449,18.343-32.629,1.64-37.702,22.374l-11.548,47.198c-1.976,8.071-3.078,16.025,8.012,20.091
				c10.75,3.941,6.346,11.176,22.289,15.077l79.805,19.527c8.129,1.989,16.354-2.98,18.333-11.074
				c0.821-3.355,0.388-6.7-0.913-9.641c5.127-1.411,9.385-5.4,10.73-10.903c0.819-3.346,0.391-6.69-0.907-9.626
				c5.139-1.402,9.406-5.394,10.755-10.906c0.979-4.003,0.24-8.029-1.733-11.326
				C3362.191,318.684,3365.371,315.149,3366.498,310.544L3366.498,310.544z"/>
			<path style="fill:#BDCDFF;" d="M3310.117,312.303l38.053,9.311c5.176,1.266,10.706-0.302,14.436-4.089
				c1.535-1.561,1.508-4.074-0.066-5.611c-1.568-1.537-4.094-1.506-5.633,0.055c-1.768,1.802-4.4,2.54-6.854,1.939l-38.965-9.534
				c-3.861-0.945-6.236-4.839-5.296-8.685c0.941-3.843,4.846-6.201,8.707-5.256l26.037,6.372c2.136,0.522,4.292-0.78,4.813-2.907
				c0.52-2.126-0.791-4.276-2.928-4.798l-26.041-6.373c-8.129-1.99-16.352,2.976-18.332,11.068
				c-1.104,4.514,0.02,9.021,2.589,12.506c-3.372,1.999-5.971,5.282-6.971,9.368c-1.107,4.527,0.026,9.051,2.614,12.536
				c-3.354,1.999-5.932,5.274-6.929,9.352c-1.206,4.931,0.201,9.887,3.309,13.47c-2.952,2.026-5.229,5.049-6.143,8.783
				c-1.98,8.093,3.021,16.293,11.149,18.282l24.255,5.935c5.175,1.267,10.708-0.296,14.438-4.083c1.539-1.56,1.512-4.073-0.057-5.61
				c-1.576-1.529-4.098-1.515-5.632,0.045c-1.776,1.801-4.409,2.542-6.864,1.942l-24.255-5.935c-3.86-0.945-6.236-4.839-5.296-8.683
				c0.941-3.844,4.846-6.202,8.707-5.257l28.774,7.04c5.175,1.267,10.714-0.299,14.439-4.088c1.54-1.564,1.514-4.076-0.058-5.608
				c-1.582-1.559-4.1-1.517-5.631,0.045c-1.803,1.832-4.371,2.557-6.865,1.946l-31.238-7.643c-3.861-0.945-6.234-4.844-5.295-8.688
				c0.941-3.845,4.846-6.202,8.707-5.258l35.785,8.757c5.174,1.266,10.708-0.297,14.438-4.083c1.54-1.56,1.513-4.074-0.057-5.61
				c-1.579-1.534-4.097-1.515-5.631,0.045c-1.803,1.827-4.371,2.553-6.865,1.942l-36.762-8.995
				c-3.861-0.945-6.236-4.839-5.296-8.683C3302.35,313.721,3306.252,311.357,3310.117,312.303L3310.117,312.303z"/>
		</g>
		<path style="fill:#BDCDFF;" d="M3207.947,350.298l-24.849-6.08c-3.442-0.843-5.55-4.314-4.707-7.757l18.067-73.84
			c0.842-3.441,4.314-5.549,7.757-4.706l24.849,6.081c3.441,0.841,5.549,4.314,4.707,7.755l-18.068,73.84
			C3214.861,349.033,3211.389,351.14,3207.947,350.298z"/>
	</g>
	
		<ellipse transform="matrix(0.2298 -0.9732 0.9732 0.2298 456.2262 3371.7322)" style="fill:#FFFFFF;" cx="2358.297" cy="1397.633" rx="44.109" ry="44.109"/>
	<path style="fill:#FFFFFF;" d="M1333.077,298.287c-12.214,12.214-32.019,12.214-44.233,0c-12.214-12.215-12.214-32.018,0-44.233
		c12.214-12.214,32.019-12.214,44.233,0C1345.292,266.269,1345.292,286.072,1333.077,298.287z"/>
	<path style="fill:#E3EAFF;" d="M3860.734,1065.377c-12.215,12.215-32.019,12.215-44.232,0c-12.215-12.215-12.215-32.02,0-44.233
		c12.214-12.215,32.018-12.215,44.232,0C3872.949,1033.357,3872.949,1053.162,3860.734,1065.377z"/>
	<path style="fill:#E3EAFF;" d="M2427.277,254.179c-12.214,12.214-32.018,12.214-44.232,0c-12.215-12.214-12.215-32.019,0-44.233
		c12.215-12.214,32.019-12.214,44.232,0C2439.492,222.161,2439.492,241.965,2427.277,254.179z"/>
	<g>
		<path style="fill:#FFFFFF;" d="M2451.873,1359.975c-17.93,0-32.518-14.588-32.518-32.518s14.588-32.518,32.518-32.518
			c17.931,0,32.518,14.588,32.518,32.518S2469.804,1359.975,2451.873,1359.975z M2451.873,1307.391
			c-11.064,0-20.066,9.002-20.066,20.066c0,11.064,9.002,20.066,20.066,20.066s20.066-9.002,20.066-20.066
			C2471.939,1316.392,2462.938,1307.391,2451.873,1307.391z"/>
	</g>
	<g>
		<path style="fill:#E3EAFF;" d="M3797.531,1194.552c-22.654,0-41.086-18.431-41.086-41.086s18.432-41.087,41.086-41.087
			c22.655,0,41.087,18.432,41.087,41.087S3820.187,1194.552,3797.531,1194.552z M3797.531,1128.111
			c-13.979,0-25.354,11.375-25.354,25.354s11.374,25.354,25.354,25.354c13.98,0,25.354-11.375,25.354-25.354
			S3811.512,1128.111,3797.531,1128.111z"/>
	</g>
</g>
</svg>
