<svg width="102" height="50" viewBox="0 0 102 50" fill="none" xmlns="http://www.w3.org/2000/svg">
<path d="M42.9998 9.00069L43.5287 9.84941L42.9998 9.00069ZM101.467 9.88477C101.955 9.62691 102.142 9.02195 101.884 8.53356L97.682 0.574787C97.4242 0.0863968 96.8192 -0.100481 96.3308 0.157382C95.8424 0.415248 95.6556 1.02021 95.9134 1.50859L99.6487 8.58306L92.5742 12.3183C92.0858 12.5762 91.8989 13.1811 92.1568 13.6695C92.4147 14.1579 93.0196 14.3448 93.508 14.0869L101.467 9.88477ZM0.628419 47.9285C7.12412 50.5269 12.2829 49.993 16.5426 47.4358C20.7255 44.9246 23.9119 40.5357 26.6913 35.7078C28.0877 33.2823 29.4004 30.7103 30.6904 28.1657C31.9846 25.6127 33.2547 23.0899 34.5813 20.7242C37.2498 15.9653 40.0594 12.0111 43.5287 9.84941L42.471 8.15198C38.54 10.6014 35.5246 14.9528 32.8368 19.7459C31.4853 22.1562 30.1944 24.721 28.9065 27.2613C27.6145 29.81 26.3242 32.3369 24.958 34.7099C22.2124 39.4791 19.2364 43.4858 15.5132 45.7211C11.8667 47.9101 7.3755 48.4734 1.37122 46.0716L0.628419 47.9285ZM43.5287 9.84941C48.1515 6.96885 54.0069 5.49726 60.2606 4.94326C66.5058 4.39002 73.0799 4.75763 79.0859 5.50101C85.0884 6.24395 90.4987 7.35901 94.4094 8.28888C96.3639 8.75362 97.9417 9.1716 99.0292 9.47286C99.5729 9.62348 99.9938 9.74489 100.278 9.82832C100.42 9.87004 100.528 9.90226 100.599 9.92389C100.635 9.93471 100.662 9.94287 100.68 9.94826C100.689 9.95095 100.695 9.95295 100.699 9.95423C100.701 9.95487 100.703 9.95533 100.704 9.95561C100.704 9.95575 100.704 9.95583 100.705 9.9559C100.705 9.95593 100.705 9.95592 101 9.00046C101.295 8.04501 101.295 8.04491 101.294 8.04475C101.294 8.04464 101.293 8.04444 101.292 8.04422C101.291 8.04378 101.289 8.04315 101.286 8.04235C101.281 8.04074 101.274 8.03842 101.264 8.0354C101.244 8.02936 101.215 8.02052 101.177 8.00904C101.101 7.98608 100.988 7.9525 100.842 7.90941C100.548 7.82323 100.117 7.69898 99.5631 7.54546C98.4549 7.23845 96.8532 6.8142 94.872 6.34313C90.9114 5.40138 85.4262 4.2705 79.3316 3.51616C73.2406 2.76227 66.5162 2.38127 60.0841 2.95107C53.6605 3.52011 47.46 5.04322 42.471 8.15198L43.5287 9.84941Z" fill="white"/>
</svg>
