<svg width="100" height="51" viewBox="0 0 100 51" fill="none" xmlns="http://www.w3.org/2000/svg">
<path d="M44 49L43.8068 49.9812L44 49ZM99.9969 26.078C100.04 25.5274 99.6284 25.0462 99.0778 25.0032L90.1051 24.3024C89.5545 24.2594 89.0733 24.6709 89.0303 25.2215C88.9873 25.7721 89.3988 26.2533 89.9494 26.2963L97.9251 26.9192L97.3022 34.8949C97.2592 35.4455 97.6706 35.9268 98.2213 35.9698C98.7719 36.0128 99.2531 35.6013 99.2961 35.0507L99.9969 26.078ZM1 1C0.0794687 1.39067 0.0796235 1.39103 0.079848 1.39156C0.080016 1.39196 0.0803107 1.39265 0.0806466 1.39344C0.0813187 1.39502 0.0822699 1.39725 0.0834994 1.40014C0.0859586 1.4059 0.0895316 1.41427 0.0942126 1.42519C0.103574 1.44704 0.117369 1.47912 0.13555 1.52112C0.171913 1.60513 0.225826 1.72884 0.296927 1.88977C0.439123 2.21162 0.650091 2.68238 0.926922 3.28214C1.48053 4.48156 2.29784 6.19754 3.35559 8.27069C5.47015 12.4152 8.55025 17.9962 12.4105 23.7347C16.2682 29.4694 20.9222 35.3873 26.1905 40.1878C31.4528 44.9828 37.3875 48.7171 43.8068 49.9812L44.1932 48.0188C38.2662 46.8517 32.6527 43.3703 27.5376 38.7095C22.4284 34.0541 17.8758 28.2759 14.07 22.6184C10.2668 16.9648 7.22682 11.4575 5.1371 7.36174C4.09272 5.31477 3.28685 3.62264 2.74282 2.44398C2.47083 1.85471 2.26436 1.39394 2.12633 1.08151C2.05732 0.925305 2.00541 0.806196 1.97099 0.726668C1.95378 0.686905 1.94094 0.657038 1.93251 0.637378C1.9283 0.627548 1.92519 0.62027 1.92319 0.615583C1.92219 0.613239 1.92147 0.611543 1.92103 0.610499C1.92081 0.609977 1.92068 0.609686 1.92057 0.609424C1.92052 0.609296 1.92053 0.609331 1 1ZM43.8068 49.9812C49.742 51.1499 56.2152 50.2308 62.5286 48.2584C68.8502 46.2835 75.0816 43.2305 80.5672 40.0521C86.0564 36.8718 90.8224 33.5522 94.2152 31.0288C95.9124 29.7666 97.2678 28.7022 98.2003 27.9521C98.6666 27.5771 99.0273 27.2805 99.2722 27.077C99.3947 26.9753 99.4883 26.8968 99.5516 26.8434C99.5833 26.8167 99.6074 26.7962 99.6238 26.7823C99.632 26.7753 99.6383 26.77 99.6427 26.7663C99.6448 26.7644 99.6465 26.763 99.6477 26.762C99.6483 26.7615 99.6488 26.761 99.6491 26.7607C99.6495 26.7604 99.6498 26.7602 98.9999 26.0001C98.35 25.2401 98.3501 25.2401 98.35 25.2402C98.3498 25.2403 98.3496 25.2405 98.3492 25.2408C98.3484 25.2415 98.3472 25.2425 98.3454 25.244C98.342 25.247 98.3366 25.2516 98.3292 25.2578C98.3146 25.2703 98.2922 25.2892 98.2624 25.3144C98.2026 25.3647 98.1128 25.4401 97.9942 25.5387C97.7569 25.7358 97.4044 26.0256 96.9468 26.3937C96.0315 27.1299 94.6962 28.1786 93.0216 29.424C89.6711 31.9159 84.9701 35.1897 79.5646 38.3216C74.1556 41.4555 68.0647 44.4336 61.9322 46.3494C55.7917 48.2678 49.6793 49.0992 44.1932 48.0188L43.8068 49.9812Z" fill="white"/>
</svg>
