<svg width="114" height="80" viewBox="0 0 114 80" fill="none" xmlns="http://www.w3.org/2000/svg">
<path d="M91 11.0003L90.3233 11.7365L91 11.0003ZM0.118853 10.527C-0.142405 11.0136 0.0402636 11.6198 0.526848 11.8811L8.45621 16.1385C8.94279 16.3997 9.54904 16.2171 9.81029 15.7305C10.0715 15.2439 9.88888 14.6376 9.40229 14.3764L2.35397 10.5921L6.13831 3.54374C6.39956 3.05715 6.2169 2.45091 5.73031 2.18966C5.24373 1.92841 4.63748 2.11107 4.37623 2.59765L0.118853 10.527ZM113 79.0021C114 78.9726 114 78.9722 114 78.9716C114 78.9712 114 78.9704 114 78.9695C114 78.9678 113.999 78.9653 113.999 78.962C113.999 78.9555 113.999 78.9461 113.998 78.9337C113.998 78.9089 113.996 78.8725 113.995 78.8246C113.991 78.7289 113.986 78.5875 113.978 78.403C113.962 78.034 113.936 77.4923 113.896 76.7971C113.816 75.407 113.678 73.4029 113.448 70.9402C112.989 66.0161 112.161 59.2508 110.687 51.8881C107.752 37.2318 102.207 19.9429 91.6767 10.264L90.3233 11.7365C100.343 20.9463 105.798 37.6583 108.726 52.2808C110.183 59.5575 111.002 66.251 111.457 71.1259C111.684 73.5627 111.82 75.5431 111.899 76.9126C111.939 77.5973 111.964 78.1292 111.98 78.4888C111.987 78.6687 111.993 78.8054 111.996 78.8967C111.998 78.9423 111.999 78.9766 112 78.9992C112 79.0105 112 79.0189 112 79.0243C112 79.027 112 79.029 112.001 79.0302C112.001 79.0308 112.001 79.0312 112.001 79.0315C112.001 79.0316 112.001 79.0316 113 79.0021ZM91.6767 10.264C85.8866 4.94182 77.2253 2.35481 67.6644 1.38918C58.0791 0.421079 47.4392 1.06827 37.5395 2.34967C27.6331 3.63194 18.4301 5.55442 11.7063 7.15524C8.34332 7.95591 5.59804 8.67672 3.69206 9.19779C2.73901 9.45834 1.99565 9.66899 1.48967 9.81477C1.23668 9.88766 1.04302 9.94434 0.91216 9.98293C0.846727 10.0022 0.796995 10.017 0.763389 10.027C0.746584 10.032 0.733815 10.0358 0.72513 10.0384C0.720788 10.0397 0.717468 10.0407 0.715176 10.0414C0.714031 10.0418 0.713084 10.0421 0.712512 10.0422C0.711823 10.0424 0.711394 10.0426 0.999891 11.0001C1.28839 11.9575 1.28847 11.9575 1.28882 11.9574C1.28928 11.9573 1.28988 11.9571 1.29079 11.9568C1.29263 11.9563 1.29549 11.9554 1.29936 11.9542C1.30712 11.9519 1.31896 11.9484 1.33482 11.9436C1.36654 11.9342 1.41437 11.92 1.47786 11.9013C1.60485 11.8638 1.79451 11.8083 2.04338 11.7366C2.54115 11.5932 3.27573 11.385 4.21947 11.127C6.10707 10.6109 8.83078 9.89576 12.1695 9.10086C18.849 7.51058 27.98 5.60373 37.7963 4.33313C47.6192 3.06166 58.0907 2.43243 67.4634 3.37906C76.8606 4.32816 85.004 6.84701 90.3233 11.7365L91.6767 10.264Z" fill="white"/>
</svg>
