<svg width="103" height="28" viewBox="0 0 103 28" fill="none" xmlns="http://www.w3.org/2000/svg">
<path d="M49.3445 8.53031L48.3454 8.48881L49.3445 8.53031ZM0.783149 25.5902C0.736761 26.1405 1.14529 26.6242 1.69562 26.6706L10.6638 27.4266C11.2142 27.4729 11.6979 27.0644 11.7443 26.5141C11.7907 25.9638 11.3821 25.48 10.8318 25.4336L2.86008 24.7617L3.53203 16.7899C3.57842 16.2396 3.16989 15.7559 2.61956 15.7095C2.06922 15.6631 1.58548 16.0716 1.5391 16.622L0.783149 25.5902ZM102 8.53031C101.594 7.61662 101.594 7.61664 101.593 7.61675C101.593 7.61691 101.592 7.61711 101.592 7.61742C101.59 7.61804 101.588 7.61903 101.585 7.62037C101.579 7.62306 101.57 7.62716 101.557 7.63265C101.532 7.64363 101.495 7.66016 101.445 7.68197C101.345 7.72558 101.197 7.79027 101.003 7.87389C100.614 8.04112 100.042 8.28397 99.3146 8.58498C97.8588 9.18708 95.7785 10.0215 93.2847 10.9487C88.2921 12.8051 81.664 15.0255 75.0815 16.5032C68.4628 17.989 62.0361 18.6885 57.3768 17.6227C55.066 17.0941 53.276 16.1506 52.0878 14.7379C50.9109 13.3387 50.2277 11.3641 50.3437 8.57181L48.3454 8.48881C48.2136 11.6622 48.99 14.162 50.5572 16.0253C52.113 17.8751 54.3515 18.9823 56.9308 19.5723C62.0514 20.7436 68.8505 19.9517 75.5196 18.4546C82.2249 16.9494 88.9465 14.6956 93.9817 12.8233C96.5018 11.8863 98.6049 11.0428 100.079 10.4331C100.816 10.1283 101.396 9.88173 101.793 9.71106C101.991 9.62572 102.144 9.55934 102.247 9.5141C102.299 9.49148 102.338 9.47415 102.365 9.46237C102.378 9.45648 102.388 9.45198 102.395 9.44891C102.399 9.44737 102.401 9.44619 102.403 9.44537C102.404 9.44496 102.405 9.44462 102.405 9.44441C102.406 9.44416 102.406 9.44399 102 8.53031ZM50.3437 8.57181C50.4731 5.45614 49.8074 3.13645 48.2714 1.68812C46.733 0.237538 44.5635 -0.111509 42.2206 0.147937C37.567 0.663271 31.4224 3.6644 25.4162 7.29802C19.3644 10.9592 13.2934 15.3637 8.74333 18.8455C6.46633 20.5879 4.56605 22.1025 3.23438 23.1819C2.56847 23.7217 2.04455 24.1528 1.6866 24.4495C1.50762 24.5978 1.37012 24.7125 1.27709 24.7904C1.23058 24.8293 1.19518 24.859 1.17127 24.8791C1.15932 24.8891 1.15024 24.8968 1.14408 24.902C1.141 24.9046 1.13865 24.9066 1.13703 24.9079C1.13622 24.9086 1.13557 24.9092 1.13516 24.9095C1.13469 24.9099 1.1344 24.9101 1.77962 25.6741C2.42483 26.4381 2.42491 26.4381 2.42518 26.4379C2.42551 26.4376 2.42596 26.4372 2.42663 26.4366C2.42797 26.4355 2.43004 26.4338 2.43284 26.4314C2.43844 26.4267 2.44696 26.4195 2.45834 26.4099C2.4811 26.3908 2.51533 26.3621 2.56066 26.3241C2.65132 26.2483 2.78635 26.1356 2.96276 25.9894C3.3156 25.697 3.83392 25.2705 4.49378 24.7356C5.81365 23.6657 7.69908 22.163 9.95874 20.4339C14.482 16.9726 20.4881 12.6169 26.4514 9.00924C32.4603 5.37404 38.2689 2.59777 42.4408 2.13579C44.5107 1.90657 45.972 2.26888 46.8993 3.14325C47.829 4.01989 48.4638 5.63874 48.3454 8.48881L50.3437 8.57181Z" fill="white"/>
</svg>
