<svg xmlns="http://www.w3.org/2000/svg" version="1.1" xmlns:xlink="http://www.w3.org/1999/xlink" xmlns:svgjs="http://svgjs.dev/svgjs" width="1500" height="1500" viewBox="0 0 1500 1500"><rect width="1500" height="1500" fill="#ffffff"></rect><g transform="matrix(0.6666666666666666,0,0,0.6666666666666666,249.39393939393938,475.27570275510857)"><svg viewBox="0 0 396 218" data-background-color="#ffffff" preserveAspectRatio="xMidYMid meet" height="825" width="1500" xmlns="http://www.w3.org/2000/svg" xmlns:xlink="http://www.w3.org/1999/xlink"><g id="tight-bounds" transform="matrix(1,0,0,1,0.2400000000000091,-0.10927854657030878)"><svg viewBox="0 0 395.52 218.21855709314062" height="218.21855709314062" width="395.52"><g><svg viewBox="0 0 397.4975999999999 219.30964987860628" height="218.21855709314062" width="395.52"><g><rect width="397.4975999999999" height="6.717164919410309" x="0" y="120.5229426088155" fill="#000000" opacity="1" stroke-width="0" stroke="transparent" fill-opacity="1" class="rect-yte-0" data-fill-palette-color="primary" rx="1%" id="yte-0" data-palette-color="#eee0e0"></rect></g><g transform="matrix(1,0,0,1,0.9887999999999693,144.82430888793866)"><svg viewBox="0 0 395.52 74.48534099066762" height="74.48534099066762" width="395.52"><g id="textblocktransform"><svg viewBox="0 0 395.52 74.48534099066762" height="74.48534099066762" width="395.52" id="textblock"><g><svg viewBox="0 0 395.52 74.48534099066762" height="74.48534099066762" width="395.52"><g transform="matrix(1,0,0,1,0,0)"><svg width="395.52" viewBox="4.5 -27.65 208.94 39.349999999999994" height="74.48534099066762" data-palette-color="#eee0e0"><path d="M6.45 11.7L6.45 11.7Q5.55 11.7 5.03 11.18 4.5 10.65 4.5 9.75L4.5 9.75 4.5-13.85Q4.55-17.75 6.38-20.88 8.2-24 11.33-25.8 14.45-27.6 18.35-27.6L18.35-27.6Q22.35-27.6 25.5-25.78 28.65-23.95 30.48-20.8 32.3-17.65 32.3-13.65L32.3-13.65Q32.3-9.7 30.53-6.55 28.75-3.4 25.7-1.58 22.65 0.25 18.8 0.25L18.8 0.25Q15.45 0.25 12.73-1.18 10-2.6 8.35-4.95L8.35-4.95 8.35 9.75Q8.35 10.65 7.83 11.18 7.3 11.7 6.45 11.7ZM18.35-3.25L18.35-3.25Q21.25-3.25 23.55-4.6 25.85-5.95 27.18-8.33 28.5-10.7 28.5-13.65L28.5-13.65Q28.5-16.65 27.18-19 25.85-21.35 23.55-22.73 21.25-24.1 18.35-24.1L18.35-24.1Q15.5-24.1 13.2-22.73 10.9-21.35 9.6-19 8.3-16.65 8.3-13.65L8.3-13.65Q8.3-10.7 9.6-8.33 10.9-5.95 13.2-4.6 15.5-3.25 18.35-3.25ZM52.25 0.25L52.25 0.25Q48.2 0.25 45.07-1.53 41.95-3.3 40.17-6.45 38.4-9.6 38.4-13.65L38.4-13.65Q38.4-17.75 40.07-20.88 41.75-24 44.7-25.8 47.65-27.6 51.5-27.6L51.5-27.6Q55.3-27.6 58.12-25.88 60.95-24.15 62.5-21.1 64.05-18.05 64.05-14.15L64.05-14.15Q64.05-13.35 63.55-12.88 63.05-12.4 62.25-12.4L62.25-12.4 41-12.4 41-15.6 62.65-15.6 60.5-14.05Q60.55-16.95 59.45-19.25 58.35-21.55 56.32-22.85 54.3-24.15 51.5-24.15L51.5-24.15Q48.65-24.15 46.5-22.8 44.35-21.45 43.17-19.07 42-16.7 42-13.65L42-13.65Q42-10.6 43.32-8.25 44.65-5.9 46.95-4.55 49.25-3.2 52.25-3.2L52.25-3.2Q54.05-3.2 55.87-3.83 57.7-4.45 58.8-5.4L58.8-5.4Q59.35-5.85 60.05-5.88 60.75-5.9 61.25-5.5L61.25-5.5Q61.9-4.9 61.92-4.2 61.95-3.5 61.35-3L61.35-3Q59.7-1.6 57.15-0.68 54.6 0.25 52.25 0.25ZM72.5 11.7L72.5 11.7Q71.6 11.7 71.07 11.18 70.55 10.65 70.55 9.75L70.55 9.75 70.55-13.85Q70.6-17.75 72.42-20.88 74.25-24 77.37-25.8 80.5-27.6 84.4-27.6L84.4-27.6Q88.4-27.6 91.55-25.78 94.7-23.95 96.52-20.8 98.35-17.65 98.35-13.65L98.35-13.65Q98.35-9.7 96.57-6.55 94.8-3.4 91.75-1.58 88.7 0.25 84.85 0.25L84.85 0.25Q81.5 0.25 78.77-1.18 76.05-2.6 74.4-4.95L74.4-4.95 74.4 9.75Q74.4 10.65 73.87 11.18 73.35 11.7 72.5 11.7ZM84.4-3.25L84.4-3.25Q87.3-3.25 89.6-4.6 91.9-5.95 93.22-8.33 94.55-10.7 94.55-13.65L94.55-13.65Q94.55-16.65 93.22-19 91.9-21.35 89.6-22.73 87.3-24.1 84.4-24.1L84.4-24.1Q81.55-24.1 79.25-22.73 76.95-21.35 75.65-19 74.35-16.65 74.35-13.65L74.35-13.65Q74.35-10.7 75.65-8.33 76.95-5.95 79.25-4.6 81.55-3.25 84.4-3.25ZM118.34 0.25L118.34 0.25Q114.34 0.25 111.19-1.55 108.04-3.35 106.24-6.5 104.44-9.65 104.44-13.65L104.44-13.65Q104.44-17.7 106.24-20.85 108.04-24 111.19-25.8 114.34-27.6 118.34-27.6L118.34-27.6Q122.34-27.6 125.47-25.8 128.59-24 130.39-20.85 132.19-17.7 132.24-13.65L132.24-13.65Q132.24-9.65 130.42-6.5 128.59-3.35 125.47-1.55 122.34 0.25 118.34 0.25ZM118.34-3.25L118.34-3.25Q121.24-3.25 123.54-4.6 125.84-5.95 127.14-8.3 128.44-10.65 128.44-13.65L128.44-13.65Q128.44-16.65 127.14-19.03 125.84-21.4 123.54-22.75 121.24-24.1 118.34-24.1L118.34-24.1Q115.44-24.1 113.14-22.75 110.84-21.4 109.52-19.03 108.19-16.65 108.19-13.65L108.19-13.65Q108.19-10.65 109.52-8.3 110.84-5.95 113.14-4.6 115.44-3.25 118.34-3.25ZM176.69 0L176.69 0Q175.84 0 175.29-0.53 174.74-1.05 174.74-1.9L174.74-1.9 174.74-16.3Q174.74-19.85 172.89-21.93 171.04-24 168.14-24L168.14-24Q165.04-24 163.06-21.93 161.09-19.85 161.14-16.4L161.14-16.4 157.69-16.4Q157.74-19.75 159.14-22.3 160.54-24.85 162.99-26.25 165.44-27.65 168.54-27.65L168.54-27.65Q171.49-27.65 173.77-26.25 176.04-24.85 177.31-22.3 178.59-19.75 178.59-16.3L178.59-16.3 178.59-1.9Q178.59-1.05 178.06-0.53 177.54 0 176.69 0ZM141.69 0L141.69 0Q140.79 0 140.27-0.53 139.74-1.05 139.74-1.9L139.74-1.9 139.74-25.4Q139.74-26.25 140.27-26.8 140.79-27.35 141.69-27.35L141.69-27.35Q142.54-27.35 143.06-26.8 143.59-26.25 143.59-25.4L143.59-25.4 143.59-1.9Q143.59-1.05 143.06-0.53 142.54 0 141.69 0ZM159.24 0L159.24 0Q158.39 0 157.84-0.53 157.29-1.05 157.29-1.9L157.29-1.9 157.29-16.3Q157.29-19.85 155.44-21.93 153.59-24 150.69-24L150.69-24Q147.59-24 145.59-21.98 143.59-19.95 143.59-16.7L143.59-16.7 140.84-16.7Q140.94-19.9 142.27-22.38 143.59-24.85 145.89-26.25 148.19-27.65 151.09-27.65L151.09-27.65Q154.04-27.65 156.31-26.25 158.59-24.85 159.87-22.3 161.14-19.75 161.14-16.3L161.14-16.3 161.14-1.9Q161.14-1.05 160.62-0.53 160.09 0 159.24 0ZM199.14 0.25L199.14 0.25Q195.29 0.25 192.24-1.58 189.19-3.4 187.41-6.55 185.64-9.7 185.64-13.65L185.64-13.65Q185.64-17.65 187.46-20.8 189.29-23.95 192.44-25.78 195.59-27.6 199.54-27.6L199.54-27.6Q203.49-27.6 206.61-25.78 209.74-23.95 211.56-20.8 213.39-17.65 213.44-13.65L213.44-13.65 211.89-12.45Q211.89-8.85 210.21-5.98 208.54-3.1 205.66-1.43 202.79 0.25 199.14 0.25ZM199.54-3.25L199.54-3.25Q202.44-3.25 204.71-4.6 206.99-5.95 208.31-8.33 209.64-10.7 209.64-13.65L209.64-13.65Q209.64-16.65 208.31-19 206.99-21.35 204.71-22.73 202.44-24.1 199.54-24.1L199.54-24.1Q196.69-24.1 194.39-22.73 192.09-21.35 190.74-19 189.39-16.65 189.39-13.65L189.39-13.65Q189.39-10.7 190.74-8.33 192.09-5.95 194.39-4.6 196.69-3.25 199.54-3.25ZM211.49 0L211.49 0Q210.64 0 210.09-0.53 209.54-1.05 209.54-1.9L209.54-1.9 209.54-10.45 210.49-14.4 213.44-13.65 213.44-1.9Q213.44-1.05 212.89-0.53 212.34 0 211.49 0Z" opacity="1" transform="matrix(1,0,0,1,0,0)" fill="#000000" class="wordmark-text-0" data-fill-palette-color="primary" id="text-0"></path></svg></g></svg></g></svg></g></svg></g><g transform="matrix(1,0,0,1,160.6030001907638,0)"><svg viewBox="0 0 76.29159961847233 102.93874124910265" height="102.93874124910265" width="76.29159961847233"><g><svg xmlns="http://www.w3.org/2000/svg" viewBox="62 22 234.425 316.305" x="0" y="0" height="102.93874124910265" width="76.29159961847233" class="icon-icon-0" data-fill-palette-color="accent" id="icon-0"><path d="M179.212 128.468c-39.12 0-71.869-30.288-79.523-70.468h159.046c-7.654 40.18-40.403 70.468-79.523 70.468m15.734 51.734c0 8.147-6.223 14.866-14.166 15.656-0.522-0.008-1.044-0.022-1.568-0.022s-1.046 0.014-1.568 0.022c-7.943-0.79-14.166-7.509-14.166-15.656 0-8.675 7.058-15.734 15.734-15.734s15.734 7.06 15.734 15.734m63.79 122.103H99.688c7.521-39.48 39.276-69.39 77.492-70.42 0.675 0.026 1.35 0.052 2.031 0.052s1.356-0.026 2.031-0.052c38.216 1.03 69.971 30.94 77.492 70.42M296.425 40V22H62v18c0 51.673 29.808 96.087 72.121 114.884a51.4 51.4 0 0 0-6.643 25.318 51.4 51.4 0 0 0 6.597 25.238C91.786 224.25 62 268.651 62 320.305v18h234.425v-18c0-51.654-29.786-96.056-72.076-114.865a51.4 51.4 0 0 0 6.597-25.238 51.4 51.4 0 0 0-6.643-25.318c42.313-18.797 72.122-63.21 72.122-114.884" fill="#000000" data-fill-palette-color="accent"></path></svg></g></svg></g><g></g></svg></g><defs></defs></svg><rect width="395.52" height="218.21855709314062" fill="none" stroke="none" visibility="hidden"></rect></g></svg></g></svg>